<?xml version="1.0" encoding="UTF-8"?>
<!DOCTYPE svg PUBLIC "-//W3C//DTD SVG 1.1//EN" "http://www.w3.org/Graphics/SVG/1.1/DTD/svg11.dtd">
<!-- Creator: CorelDRAW 2018 (64-Bit) -->
<svg xmlns="http://www.w3.org/2000/svg" xml:space="preserve" width="601px" height="406px" version="1.1" style="shape-rendering:geometricPrecision; text-rendering:geometricPrecision; image-rendering:optimizeQuality; fill-rule:evenodd; clip-rule:evenodd"
viewBox="0 0 553.67 374.3"
 xmlns:xlink="http://www.w3.org/1999/xlink">
 <defs>
  <style type="text/css">
   <![CDATA[
    .str0 {stroke:#FF90AA;stroke-width:0.4;stroke-miterlimit:22.9256}
    .fil3 {fill:none;fill-rule:nonzero}
    .fil1 {fill:#222225}
    .fil2 {fill:#FF90AA;fill-rule:nonzero}
    .fil0 {fill:white;fill-rule:nonzero}
   ]]>
  </style>
   <mask id="id0">
    <path fill="black" d="M560.85 594.85 L-7.18 594.85 L-7.18 26.81 L560.85 26.81 L560.85 594.85 L558.63 592.63 L-4.96 592.63 L-4.96 29.03 L558.63 29.03 L558.63 592.63 L560.85 594.85z"/>
    <path fill="black" d="M559.74 593.74 L-6.07 593.74 L-6.07 27.92 L559.74 27.92 L559.74 593.74 L557.52 591.52 L-3.85 591.52 L-3.85 30.14 L557.52 30.14 L557.52 591.52 L559.74 593.74z"/>
    <path fill="#0A0A0A" d="M558.63 592.63 L-4.96 592.63 L-4.96 29.03 L558.63 29.03 L558.63 592.63 L556.41 590.41 L-2.75 590.41 L-2.75 31.25 L556.41 31.25 L556.41 590.41 L558.63 592.63z"/>
    <path fill="#141414" d="M557.52 591.52 L-3.86 591.52 L-3.86 30.14 L557.52 30.14 L557.52 591.52 L555.3 589.3 L-1.64 589.3 L-1.64 32.36 L555.3 32.36 L555.3 589.3 L557.52 591.52z"/>
    <path fill="#181818" d="M556.41 590.41 L-2.75 590.41 L-2.75 31.25 L556.41 31.25 L556.41 590.41 L554.19 588.19 L-0.53 588.19 L-0.53 33.47 L554.19 33.47 L554.19 588.19 L556.41 590.41z"/>
    <path fill="#1C1C1C" d="M555.3 589.3 L-1.64 589.3 L-1.64 32.36 L555.3 32.36 L555.3 589.3 L553.08 587.08 L0.58 587.08 L0.58 34.58 L553.08 34.58 L553.08 587.08 L555.3 589.3z"/>
    <path fill="#202020" d="M554.19 588.19 L-0.53 588.19 L-0.53 33.47 L554.19 33.47 L554.19 588.19 L551.97 585.97 L1.69 585.97 L1.69 35.69 L551.97 35.69 L551.97 585.97 L554.19 588.19z"/>
    <path fill="#232424" d="M553.08 587.08 L0.58 587.08 L0.58 34.58 L553.08 34.58 L553.08 587.08 L550.86 584.86 L2.8 584.86 L2.8 36.8 L550.86 36.8 L550.86 584.86 L553.08 587.08z"/>
    <path fill="#262627" d="M551.97 585.97 L1.69 585.97 L1.69 35.69 L551.97 35.69 L551.97 585.97 L549.75 583.75 L3.91 583.75 L3.91 37.91 L549.75 37.91 L549.75 583.75 L551.97 585.97z"/>
    <path fill="#2B2B2B" d="M550.86 584.86 L2.8 584.86 L2.8 36.8 L550.86 36.8 L550.86 584.86 L548.65 582.64 L5.02 582.64 L5.02 39.02 L548.65 39.02 L548.65 582.64 L550.86 584.86z"/>
    <path fill="#2E2E2E" d="M549.76 583.75 L3.91 583.75 L3.91 37.91 L549.76 37.91 L549.76 583.75 L547.54 581.53 L6.13 581.53 L6.13 40.13 L547.54 40.13 L547.54 581.53 L549.76 583.75z"/>
    <path fill="#313131" d="M548.65 582.64 L5.02 582.64 L5.02 39.02 L548.65 39.02 L548.65 582.64 L546.43 580.42 L7.24 580.42 L7.24 41.24 L546.43 41.24 L546.43 580.42 L548.65 582.64z"/>
    <path fill="#343434" d="M547.54 581.53 L6.13 581.53 L6.13 40.13 L547.54 40.13 L547.54 581.53 L545.32 579.31 L8.35 579.31 L8.35 42.35 L545.32 42.35 L545.32 579.31 L547.54 581.53z"/>
    <path fill="#373637" d="M546.43 580.42 L7.24 580.42 L7.24 41.24 L546.43 41.24 L546.43 580.42 L544.21 578.2 L9.46 578.2 L9.46 43.45 L544.21 43.45 L544.21 578.2 L546.43 580.42z"/>
    <path fill="#3A393A" d="M545.32 579.31 L8.35 579.31 L8.35 42.35 L545.32 42.35 L545.32 579.31 L543.1 577.09 L10.57 577.09 L10.57 44.56 L543.1 44.56 L543.1 577.09 L545.32 579.31z"/>
    <path fill="#3E3E3E" d="M544.21 578.2 L9.46 578.2 L9.46 43.45 L544.21 43.45 L544.21 578.2 L541.99 575.99 L11.68 575.99 L11.68 45.67 L541.99 45.67 L541.99 575.99 L544.21 578.2z"/>
    <path fill="#404040" d="M543.1 577.09 L10.57 577.09 L10.57 44.56 L543.1 44.56 L543.1 577.09 L540.88 574.88 L12.79 574.88 L12.79 46.78 L540.88 46.78 L540.88 574.88 L543.1 577.09z"/>
    <path fill="#434343" d="M541.99 575.99 L11.68 575.99 L11.68 45.67 L541.99 45.67 L541.99 575.99 L539.77 573.77 L13.9 573.77 L13.9 47.89 L539.77 47.89 L539.77 573.77 L541.99 575.99z"/>
    <path fill="#454545" d="M540.88 574.88 L12.79 574.88 L12.79 46.78 L540.88 46.78 L540.88 574.88 L538.66 572.66 L15.01 572.66 L15.01 49 L538.66 49 L538.66 572.66 L540.88 574.88z"/>
    <path fill="#484848" d="M539.77 573.77 L13.9 573.77 L13.9 47.89 L539.77 47.89 L539.77 573.77 L537.55 571.55 L16.12 571.55 L16.12 50.11 L537.55 50.11 L537.55 571.55 L539.77 573.77z"/>
    <path fill="#4B4A4B" d="M538.66 572.66 L15.01 572.66 L15.01 49 L538.66 49 L538.66 572.66 L536.44 570.44 L17.22 570.44 L17.22 51.22 L536.44 51.22 L536.44 570.44 L538.66 572.66z"/>
    <path fill="#4E4E4E" d="M537.55 571.55 L16.12 571.55 L16.12 50.11 L537.55 50.11 L537.55 571.55 L535.33 569.33 L18.33 569.33 L18.33 52.33 L535.33 52.33 L535.33 569.33 L537.55 571.55z"/>
    <path fill="#505050" d="M536.44 570.44 L17.22 570.44 L17.22 51.22 L536.44 51.22 L536.44 570.44 L534.22 568.22 L19.44 568.22 L19.44 53.44 L534.22 53.44 L534.22 568.22 L536.44 570.44z"/>
    <path fill="#525253" d="M535.33 569.33 L18.33 569.33 L18.33 52.33 L535.33 52.33 L535.33 569.33 L533.11 567.11 L20.55 567.11 L20.55 54.55 L533.11 54.55 L533.11 567.11 L535.33 569.33z"/>
    <path fill="#555555" d="M534.22 568.22 L19.44 568.22 L19.44 53.44 L534.22 53.44 L534.22 568.22 L532 566 L21.66 566 L21.66 55.66 L532 55.66 L532 566 L534.22 568.22z"/>
    <path fill="#575757" d="M533.11 567.11 L20.55 567.11 L20.55 54.55 L533.11 54.55 L533.11 567.11 L530.89 564.89 L22.77 564.89 L22.77 56.77 L530.89 56.77 L530.89 564.89 L533.11 567.11z"/>
    <path fill="#5A5A5B" d="M532 566 L21.66 566 L21.66 55.66 L532 55.66 L532 566 L529.78 563.78 L23.88 563.78 L23.88 57.88 L529.78 57.88 L529.78 563.78 L532 566z"/>
    <path fill="#5D5D5D" d="M530.89 564.89 L22.77 564.89 L22.77 56.77 L530.89 56.77 L530.89 564.89 L528.68 562.67 L24.99 562.67 L24.99 58.99 L528.68 58.99 L528.68 562.67 L530.89 564.89z"/>
    <path fill="#5F5F5F" d="M529.79 563.78 L23.88 563.78 L23.88 57.88 L529.79 57.88 L529.79 563.78 L527.57 561.56 L26.1 561.56 L26.1 60.1 L527.57 60.1 L527.57 561.56 L529.79 563.78z"/>
    <path fill="#616161" d="M528.68 562.67 L24.99 562.67 L24.99 58.99 L528.68 58.99 L528.68 562.67 L526.46 560.45 L27.21 560.45 L27.21 61.21 L526.46 61.21 L526.46 560.45 L528.68 562.67z"/>
    <path fill="#636363" d="M527.57 561.56 L26.1 561.56 L26.1 60.1 L527.57 60.1 L527.57 561.56 L525.35 559.34 L28.32 559.34 L28.32 62.32 L525.35 62.32 L525.35 559.34 L527.57 561.56z"/>
    <path fill="#656565" d="M526.46 560.45 L27.21 560.45 L27.21 61.21 L526.46 61.21 L526.46 560.45 L524.24 558.23 L29.43 558.23 L29.43 63.42 L524.24 63.42 L524.24 558.23 L526.46 560.45z"/>
    <path fill="#686868" d="M525.35 559.34 L28.32 559.34 L28.32 62.31 L525.35 62.31 L525.35 559.34 L523.13 557.12 L30.54 557.12 L30.54 64.53 L523.13 64.53 L523.13 557.12 L525.35 559.34z"/>
    <path fill="#6A6A6B" d="M524.24 558.23 L29.43 558.23 L29.43 63.42 L524.24 63.42 L524.24 558.23 L522.02 556.01 L31.65 556.01 L31.65 65.64 L522.02 65.64 L522.02 556.01 L524.24 558.23z"/>
    <path fill="#6D6D6D" d="M523.13 557.12 L30.54 557.12 L30.54 64.53 L523.13 64.53 L523.13 557.12 L520.91 554.91 L32.76 554.91 L32.76 66.75 L520.91 66.75 L520.91 554.91 L523.13 557.12z"/>
    <path fill="#6F6F6F" d="M522.02 556.02 L31.65 556.02 L31.65 65.64 L522.02 65.64 L522.02 556.02 L519.8 553.8 L33.87 553.8 L33.87 67.86 L519.8 67.86 L519.8 553.8 L522.02 556.02z"/>
    <path fill="#717171" d="M520.91 554.91 L32.76 554.91 L32.76 66.75 L520.91 66.75 L520.91 554.91 L518.69 552.69 L34.98 552.69 L34.98 68.97 L518.69 68.97 L518.69 552.69 L520.91 554.91z"/>
    <path fill="#727273" d="M519.8 553.8 L33.87 553.8 L33.87 67.86 L519.8 67.86 L519.8 553.8 L517.58 551.58 L36.09 551.58 L36.09 70.08 L517.58 70.08 L517.58 551.58 L519.8 553.8z"/>
    <path fill="#757676" d="M518.69 552.69 L34.98 552.69 L34.98 68.97 L518.69 68.97 L518.69 552.69 L516.47 550.47 L37.19 550.47 L37.19 71.19 L516.47 71.19 L516.47 550.47 L518.69 552.69z"/>
    <path fill="#777778" d="M517.58 551.58 L36.08 551.58 L36.08 70.08 L517.58 70.08 L517.58 551.58 L515.36 549.36 L38.3 549.36 L38.3 72.3 L515.36 72.3 L515.36 549.36 L517.58 551.58z"/>
    <path fill="#79797A" d="M516.47 550.47 L37.19 550.47 L37.19 71.19 L516.47 71.19 L516.47 550.47 L514.25 548.25 L39.41 548.25 L39.41 73.41 L514.25 73.41 L514.25 548.25 L516.47 550.47z"/>
    <path fill="#7B7B7C" d="M515.36 549.36 L38.3 549.36 L38.3 72.3 L515.36 72.3 L515.36 549.36 L513.14 547.14 L40.52 547.14 L40.52 74.52 L513.14 74.52 L513.14 547.14 L515.36 549.36z"/>
    <path fill="#7D7D7D" d="M514.25 548.25 L39.41 548.25 L39.41 73.41 L514.25 73.41 L514.25 548.25 L512.03 546.03 L41.63 546.03 L41.63 75.63 L512.03 75.63 L512.03 546.03 L514.25 548.25z"/>
    <path fill="#7F7F7F" d="M513.14 547.14 L40.52 547.14 L40.52 74.52 L513.14 74.52 L513.14 547.14 L510.92 544.92 L42.74 544.92 L42.74 76.74 L510.92 76.74 L510.92 544.92 L513.14 547.14z"/>
    <path fill="#828282" d="M512.03 546.03 L41.63 546.03 L41.63 75.63 L512.03 75.63 L512.03 546.03 L509.82 543.81 L43.85 543.81 L43.85 77.85 L509.82 77.85 L509.82 543.81 L512.03 546.03z"/>
    <path fill="#848484" d="M510.92 544.92 L42.74 544.92 L42.74 76.74 L510.92 76.74 L510.92 544.92 L508.71 542.7 L44.96 542.7 L44.96 78.96 L508.71 78.96 L508.71 542.7 L510.92 544.92z"/>
    <path fill="#868686" d="M509.82 543.81 L43.85 543.81 L43.85 77.85 L509.82 77.85 L509.82 543.81 L507.6 541.59 L46.07 541.59 L46.07 80.07 L507.6 80.07 L507.6 541.59 L509.82 543.81z"/>
    <path fill="#888888" d="M508.71 542.7 L44.96 542.7 L44.96 78.96 L508.71 78.96 L508.71 542.7 L506.49 540.48 L47.18 540.48 L47.18 81.18 L506.49 81.18 L506.49 540.48 L508.71 542.7z"/>
    <path fill="#898A8A" d="M507.6 541.59 L46.07 541.59 L46.07 80.07 L507.6 80.07 L507.6 541.59 L505.38 539.37 L48.29 539.37 L48.29 82.29 L505.38 82.29 L505.38 539.37 L507.6 541.59z"/>
    <path fill="#8C8C8C" d="M506.49 540.48 L47.18 540.48 L47.18 81.18 L506.49 81.18 L506.49 540.48 L504.27 538.26 L49.4 538.26 L49.4 83.39 L504.27 83.39 L504.27 538.26 L506.49 540.48z"/>
    <path fill="#8E8E8E" d="M505.38 539.37 L48.29 539.37 L48.29 82.29 L505.38 82.29 L505.38 539.37 L503.16 537.15 L50.51 537.15 L50.51 84.5 L503.16 84.5 L503.16 537.15 L505.38 539.37z"/>
    <path fill="#909090" d="M504.27 538.26 L49.4 538.26 L49.4 83.39 L504.27 83.39 L504.27 538.26 L502.05 536.05 L51.62 536.05 L51.62 85.61 L502.05 85.61 L502.05 536.05 L504.27 538.26z"/>
    <path fill="#929292" d="M503.16 537.15 L50.51 537.15 L50.51 84.5 L503.16 84.5 L503.16 537.15 L500.94 534.94 L52.73 534.94 L52.73 86.72 L500.94 86.72 L500.94 534.94 L503.16 537.15z"/>
    <path fill="#939394" d="M502.05 536.05 L51.62 536.05 L51.62 85.61 L502.05 85.61 L502.05 536.05 L499.83 533.83 L53.84 533.83 L53.84 87.83 L499.83 87.83 L499.83 533.83 L502.05 536.05z"/>
    <path fill="#959595" d="M500.94 534.94 L52.73 534.94 L52.73 86.72 L500.94 86.72 L500.94 534.94 L498.72 532.72 L54.95 532.72 L54.95 88.94 L498.72 88.94 L498.72 532.72 L500.94 534.94z"/>
    <path fill="#989898" d="M499.83 533.83 L53.84 533.83 L53.84 87.83 L499.83 87.83 L499.83 533.83 L497.61 531.61 L56.06 531.61 L56.06 90.05 L497.61 90.05 L497.61 531.61 L499.83 533.83z"/>
    <path fill="#999A9A" d="M498.72 532.72 L54.95 532.72 L54.95 88.94 L498.72 88.94 L498.72 532.72 L496.5 530.5 L57.16 530.5 L57.16 91.16 L496.5 91.16 L496.5 530.5 L498.72 532.72z"/>
    <path fill="#9B9B9B" d="M497.61 531.61 L56.05 531.61 L56.05 90.05 L497.61 90.05 L497.61 531.61 L495.39 529.39 L58.27 529.39 L58.27 92.27 L495.39 92.27 L495.39 529.39 L497.61 531.61z"/>
    <path fill="#9D9D9D" d="M496.5 530.5 L57.16 530.5 L57.16 91.16 L496.5 91.16 L496.5 530.5 L494.28 528.28 L59.38 528.28 L59.38 93.38 L494.28 93.38 L494.28 528.28 L496.5 530.5z"/>
    <path fill="#9F9F9F" d="M495.39 529.39 L58.27 529.39 L58.27 92.27 L495.39 92.27 L495.39 529.39 L493.17 527.17 L60.49 527.17 L60.49 94.49 L493.17 94.49 L493.17 527.17 L495.39 529.39z"/>
    <path fill="#9F9F9F" d="M494.28 528.28 L59.38 528.28 L59.38 93.38 L494.28 93.38 L494.28 528.28 L492.06 526.06 L61.6 526.06 L61.6 95.6 L492.06 95.6 L492.06 526.06 L494.28 528.28z"/>
    <path fill="#A0A0A0" d="M493.17 527.17 L60.49 527.17 L60.49 94.49 L493.17 94.49 L493.17 527.17 L490.95 524.95 L62.71 524.95 L62.71 96.71 L490.95 96.71 L490.95 524.95 L493.17 527.17z"/>
    <path fill="#A0A1A1" d="M492.06 526.06 L61.6 526.06 L61.6 95.6 L492.06 95.6 L492.06 526.06 L489.84 523.84 L63.82 523.84 L63.82 97.82 L489.84 97.82 L489.84 523.84 L492.06 526.06z"/>
    <path fill="#A0A1A1" d="M490.95 524.95 L62.71 524.95 L62.71 96.71 L490.95 96.71 L490.95 524.95 L488.74 522.73 L64.93 522.73 L64.93 98.93 L488.74 98.93 L488.74 522.73 L490.95 524.95z"/>
    <path fill="#A1A1A1" d="M489.85 523.84 L63.82 523.84 L63.82 97.82 L489.85 97.82 L489.85 523.84 L487.63 521.62 L66.04 521.62 L66.04 100.04 L487.63 100.04 L487.63 521.62 L489.85 523.84z"/>
    <path fill="#A2A2A2" d="M488.74 522.73 L64.93 522.73 L64.93 98.93 L488.74 98.93 L488.74 522.73 L486.52 520.51 L67.15 520.51 L67.15 101.15 L486.52 101.15 L486.52 520.51 L488.74 522.73z"/>
    <path fill="#A2A2A2" d="M487.63 521.62 L66.04 521.62 L66.04 100.04 L487.63 100.04 L487.63 521.62 L485.41 519.4 L68.26 519.4 L68.26 102.26 L485.41 102.26 L485.41 519.4 L487.63 521.62z"/>
    <path fill="#A3A3A3" d="M486.52 520.51 L67.15 520.51 L67.15 101.15 L486.52 101.15 L486.52 520.51 L484.3 518.29 L69.37 518.29 L69.37 103.36 L484.3 103.36 L484.3 518.29 L486.52 520.51z"/>
    <path fill="#A4A4A4" d="M485.41 519.4 L68.26 519.4 L68.26 102.25 L485.41 102.25 L485.41 519.4 L483.19 517.18 L70.48 517.18 L70.48 104.47 L483.19 104.47 L483.19 517.18 L485.41 519.4z"/>
    <path fill="#A4A4A4" d="M484.3 518.29 L69.37 518.29 L69.37 103.36 L484.3 103.36 L484.3 518.29 L482.08 516.08 L71.59 516.08 L71.59 105.58 L482.08 105.58 L482.08 516.08 L484.3 518.29z"/>
    <path fill="#A5A5A5" d="M483.19 517.19 L70.48 517.19 L70.48 104.47 L483.19 104.47 L483.19 517.19 L480.97 514.97 L72.7 514.97 L72.7 106.69 L480.97 106.69 L480.97 514.97 L483.19 517.19z"/>
    <path fill="#A5A6A6" d="M482.08 516.08 L71.59 516.08 L71.59 105.58 L482.08 105.58 L482.08 516.08 L479.86 513.86 L73.81 513.86 L73.81 107.8 L479.86 107.8 L479.86 513.86 L482.08 516.08z"/>
    <path fill="#A5A6A6" d="M480.97 514.97 L72.7 514.97 L72.7 106.69 L480.97 106.69 L480.97 514.97 L478.75 512.75 L74.92 512.75 L74.92 108.91 L478.75 108.91 L478.75 512.75 L480.97 514.97z"/>
    <path fill="#A6A6A7" d="M479.86 513.86 L73.81 513.86 L73.81 107.8 L479.86 107.8 L479.86 513.86 L477.64 511.64 L76.02 511.64 L76.02 110.02 L477.64 110.02 L477.64 511.64 L479.86 513.86z"/>
    <path fill="#A6A6A7" d="M478.75 512.75 L74.91 512.75 L74.91 108.91 L478.75 108.91 L478.75 512.75 L476.53 510.53 L77.13 510.53 L77.13 111.13 L476.53 111.13 L476.53 510.53 L478.75 512.75z"/>
    <path fill="#A7A7A7" d="M477.64 511.64 L76.02 511.64 L76.02 110.02 L477.64 110.02 L477.64 511.64 L475.42 509.42 L78.24 509.42 L78.24 112.24 L475.42 112.24 L475.42 509.42 L477.64 511.64z"/>
    <path fill="#A8A8A8" d="M476.53 510.53 L77.13 510.53 L77.13 111.13 L476.53 111.13 L476.53 510.53 L474.31 508.31 L79.35 508.31 L79.35 113.35 L474.31 113.35 L474.31 508.31 L476.53 510.53z"/>
    <path fill="#A8A8A8" d="M475.42 509.42 L78.24 509.42 L78.24 112.24 L475.42 112.24 L475.42 509.42 L473.2 507.2 L80.46 507.2 L80.46 114.46 L473.2 114.46 L473.2 507.2 L475.42 509.42z"/>
    <path fill="darkgray" d="M474.31 508.31 L79.35 508.31 L79.35 113.35 L474.31 113.35 L474.31 508.31 L472.09 506.09 L81.57 506.09 L81.57 115.57 L472.09 115.57 L472.09 506.09 L474.31 508.31z"/>
    <path fill="#AAAAAA" d="M473.2 507.2 L80.46 507.2 L80.46 114.46 L473.2 114.46 L473.2 507.2 L470.98 504.98 L82.68 504.98 L82.68 116.68 L470.98 116.68 L470.98 504.98 L473.2 507.2z"/>
    <path fill="#AAAAAA" d="M472.09 506.09 L81.57 506.09 L81.57 115.57 L472.09 115.57 L472.09 506.09 L469.88 503.87 L83.79 503.87 L83.79 117.79 L469.88 117.79 L469.88 503.87 L472.09 506.09z"/>
    <path fill="#AAAAAB" d="M470.98 504.98 L82.68 504.98 L82.68 116.68 L470.98 116.68 L470.98 504.98 L468.77 502.76 L84.9 502.76 L84.9 118.9 L468.77 118.9 L468.77 502.76 L470.98 504.98z"/>
    <path fill="#ABABAC" d="M469.88 503.87 L83.79 503.87 L83.79 117.79 L469.88 117.79 L469.88 503.87 L467.66 501.65 L86.01 501.65 L86.01 120.01 L467.66 120.01 L467.66 501.65 L469.88 503.87z"/>
    <path fill="#ABABAC" d="M468.77 502.76 L84.9 502.76 L84.9 118.9 L468.77 118.9 L468.77 502.76 L466.55 500.54 L87.12 500.54 L87.12 121.12 L466.55 121.12 L466.55 500.54 L468.77 502.76z"/>
    <path fill="#ACACAC" d="M467.66 501.65 L86.01 501.65 L86.01 120.01 L467.66 120.01 L467.66 501.65 L465.44 499.43 L88.23 499.43 L88.23 122.23 L465.44 122.23 L465.44 499.43 L467.66 501.65z"/>
    <path fill="#ADADAD" d="M466.55 500.54 L87.12 500.54 L87.12 121.12 L466.55 121.12 L466.55 500.54 L464.33 498.32 L89.34 498.32 L89.34 123.33 L464.33 123.33 L464.33 498.32 L466.55 500.54z"/>
    <path fill="#ADADAD" d="M465.44 499.43 L88.23 499.43 L88.23 122.22 L465.44 122.22 L465.44 499.43 L463.22 497.21 L90.45 497.21 L90.45 124.44 L463.22 124.44 L463.22 497.21 L465.44 499.43z"/>
    <path fill="#AEAEAE" d="M464.33 498.32 L89.34 498.32 L89.34 123.33 L464.33 123.33 L464.33 498.32 L462.11 496.11 L91.56 496.11 L91.56 125.55 L462.11 125.55 L462.11 496.11 L464.33 498.32z"/>
    <path fill="#AFAFAF" d="M463.22 497.21 L90.45 497.21 L90.45 124.44 L463.22 124.44 L463.22 497.21 L461 495 L92.67 495 L92.67 126.66 L461 126.66 L461 495 L463.22 497.21z"/>
    <path fill="#AFAFAF" d="M462.11 496.11 L91.56 496.11 L91.56 125.55 L462.11 125.55 L462.11 496.11 L459.89 493.89 L93.78 493.89 L93.78 127.77 L459.89 127.77 L459.89 493.89 L462.11 496.11z"/>
    <path fill="#AFB0B0" d="M461 495 L92.67 495 L92.67 126.66 L461 126.66 L461 495 L458.78 492.78 L94.89 492.78 L94.89 128.88 L458.78 128.88 L458.78 492.78 L461 495z"/>
    <path fill="#B0B0B1" d="M459.89 493.89 L93.78 493.89 L93.78 127.77 L459.89 127.77 L459.89 493.89 L457.67 491.67 L96 491.67 L96 129.99 L457.67 129.99 L457.67 491.67 L459.89 493.89z"/>
    <path fill="#B0B0B1" d="M458.78 492.78 L94.89 492.78 L94.89 128.88 L458.78 128.88 L458.78 492.78 L456.56 490.56 L97.1 490.56 L97.1 131.1 L456.56 131.1 L456.56 490.56 L458.78 492.78z"/>
    <path fill="#B1B1B1" d="M457.67 491.67 L95.99 491.67 L95.99 129.99 L457.67 129.99 L457.67 491.67 L455.45 489.45 L98.21 489.45 L98.21 132.21 L455.45 132.21 L455.45 489.45 L457.67 491.67z"/>
    <path fill="#B1B1B1" d="M456.56 490.56 L97.1 490.56 L97.1 131.1 L456.56 131.1 L456.56 490.56 L454.34 488.34 L99.32 488.34 L99.32 133.32 L454.34 133.32 L454.34 488.34 L456.56 490.56z"/>
    <path fill="#B2B2B2" d="M455.45 489.45 L98.21 489.45 L98.21 132.21 L455.45 132.21 L455.45 489.45 L453.23 487.23 L100.43 487.23 L100.43 134.43 L453.23 134.43 L453.23 487.23 L455.45 489.45z"/>
    <path fill="#B3B3B3" d="M454.34 488.34 L99.32 488.34 L99.32 133.32 L454.34 133.32 L454.34 488.34 L452.12 486.12 L101.54 486.12 L101.54 135.54 L452.12 135.54 L452.12 486.12 L454.34 488.34z"/>
    <path fill="#B3B3B3" d="M453.23 487.23 L100.43 487.23 L100.43 134.43 L453.23 134.43 L453.23 487.23 L451.01 485.01 L102.65 485.01 L102.65 136.65 L451.01 136.65 L451.01 485.01 L453.23 487.23z"/>
    <path fill="#B3B4B4" d="M452.12 486.12 L101.54 486.12 L101.54 135.54 L452.12 135.54 L452.12 486.12 L449.91 483.9 L103.76 483.9 L103.76 137.76 L449.91 137.76 L449.91 483.9 L452.12 486.12z"/>
    <path fill="#B4B4B5" d="M451.02 485.01 L102.65 485.01 L102.65 136.65 L451.02 136.65 L451.02 485.01 L448.8 482.79 L104.87 482.79 L104.87 138.87 L448.8 138.87 L448.8 482.79 L451.02 485.01z"/>
    <path fill="#B4B4B5" d="M449.91 483.9 L103.76 483.9 L103.76 137.76 L449.91 137.76 L449.91 483.9 L447.69 481.68 L105.98 481.68 L105.98 139.98 L447.69 139.98 L447.69 481.68 L449.91 483.9z"/>
    <path fill="#B5B5B5" d="M448.8 482.79 L104.87 482.79 L104.87 138.87 L448.8 138.87 L448.8 482.79 L446.58 480.57 L107.09 480.57 L107.09 141.09 L446.58 141.09 L446.58 480.57 L448.8 482.79z"/>
    <path fill="#B6B6B6" d="M447.69 481.68 L105.98 481.68 L105.98 139.98 L447.69 139.98 L447.69 481.68 L445.47 479.46 L108.2 479.46 L108.2 142.19 L445.47 142.19 L445.47 479.46 L447.69 481.68z"/>
    <path fill="#B6B6B6" d="M446.58 480.57 L107.09 480.57 L107.09 141.09 L446.58 141.09 L446.58 480.57 L444.36 478.35 L109.31 478.35 L109.31 143.3 L444.36 143.3 L444.36 478.35 L446.58 480.57z"/>
    <path fill="#B7B7B7" d="M445.47 479.46 L108.2 479.46 L108.2 142.19 L445.47 142.19 L445.47 479.46 L443.25 477.24 L110.42 477.24 L110.42 144.41 L443.25 144.41 L443.25 477.24 L445.47 479.46z"/>
    <path fill="#B8B8B8" d="M444.36 478.35 L109.31 478.35 L109.31 143.3 L444.36 143.3 L444.36 478.35 L442.14 476.14 L111.53 476.14 L111.53 145.52 L442.14 145.52 L442.14 476.14 L444.36 478.35z"/>
    <path fill="#B8B8B8" d="M443.25 477.25 L110.42 477.25 L110.42 144.41 L443.25 144.41 L443.25 477.25 L441.03 475.03 L112.64 475.03 L112.64 146.63 L441.03 146.63 L441.03 475.03 L443.25 477.25z"/>
    <path fill="#B8B8B9" d="M442.14 476.14 L111.53 476.14 L111.53 145.52 L442.14 145.52 L442.14 476.14 L439.92 473.92 L113.75 473.92 L113.75 147.74 L439.92 147.74 L439.92 473.92 L442.14 476.14z"/>
    <path fill="#B9B9B9" d="M441.03 475.03 L112.64 475.03 L112.64 146.63 L441.03 146.63 L441.03 475.03 L438.81 472.81 L114.86 472.81 L114.86 148.85 L438.81 148.85 L438.81 472.81 L441.03 475.03z"/>
    <path fill="#B9B9B9" d="M439.92 473.92 L113.75 473.92 L113.75 147.74 L439.92 147.74 L439.92 473.92 L437.7 471.7 L115.96 471.7 L115.96 149.96 L437.7 149.96 L437.7 471.7 L439.92 473.92z"/>
    <path fill="#BABABA" d="M438.81 472.81 L114.85 472.81 L114.85 148.85 L438.81 148.85 L438.81 472.81 L436.59 470.59 L117.07 470.59 L117.07 151.07 L436.59 151.07 L436.59 470.59 L438.81 472.81z"/>
    <path fill="#BABABA" d="M437.7 471.7 L115.96 471.7 L115.96 149.96 L437.7 149.96 L437.7 471.7 L435.48 469.48 L118.18 469.48 L118.18 152.18 L435.48 152.18 L435.48 469.48 L437.7 471.7z"/>
    <path fill="#BBBBBB" d="M436.59 470.59 L117.07 470.59 L117.07 151.07 L436.59 151.07 L436.59 470.59 L434.37 468.37 L119.29 468.37 L119.29 153.29 L434.37 153.29 L434.37 468.37 L436.59 470.59z"/>
    <path fill="#BCBCBC" d="M435.48 469.48 L118.18 469.48 L118.18 152.18 L435.48 152.18 L435.48 469.48 L433.26 467.26 L120.4 467.26 L120.4 154.4 L433.26 154.4 L433.26 467.26 L435.48 469.48z"/>
    <path fill="#BCBCBC" d="M434.37 468.37 L119.29 468.37 L119.29 153.29 L434.37 153.29 L434.37 468.37 L432.15 466.15 L121.51 466.15 L121.51 155.51 L432.15 155.51 L432.15 466.15 L434.37 468.37z"/>
    <path fill="#BCBCBD" d="M433.26 467.26 L120.4 467.26 L120.4 154.4 L433.26 154.4 L433.26 467.26 L431.04 465.04 L122.62 465.04 L122.62 156.62 L431.04 156.62 L431.04 465.04 L433.26 467.26z"/>
    <path fill="#BDBDBD" d="M432.15 466.15 L121.51 466.15 L121.51 155.51 L432.15 155.51 L432.15 466.15 L429.94 463.93 L123.73 463.93 L123.73 157.73 L429.94 157.73 L429.94 463.93 L432.15 466.15z"/>
    <path fill="#BDBDBD" d="M431.04 465.04 L122.62 465.04 L122.62 156.62 L431.04 156.62 L431.04 465.04 L428.83 462.82 L124.84 462.82 L124.84 158.84 L428.83 158.84 L428.83 462.82 L431.04 465.04z"/>
    <path fill="#BEBEBE" d="M429.94 463.93 L123.73 463.93 L123.73 157.73 L429.94 157.73 L429.94 463.93 L427.72 461.71 L125.95 461.71 L125.95 159.95 L427.72 159.95 L427.72 461.71 L429.94 463.93z"/>
    <path fill="#BFBFBF" d="M428.83 462.82 L124.84 462.82 L124.84 158.84 L428.83 158.84 L428.83 462.82 L426.61 460.6 L127.06 460.6 L127.06 161.06 L426.61 161.06 L426.61 460.6 L428.83 462.82z"/>
    <path fill="#BFBFBF" d="M427.72 461.71 L125.95 461.71 L125.95 159.95 L427.72 159.95 L427.72 461.71 L425.5 459.49 L128.17 459.49 L128.17 162.17 L425.5 162.17 L425.5 459.49 L427.72 461.71z"/>
    <path fill="#BFC0C0" d="M426.61 460.6 L127.06 460.6 L127.06 161.06 L426.61 161.06 L426.61 460.6 L424.39 458.38 L129.28 458.38 L129.28 163.27 L424.39 163.27 L424.39 458.38 L426.61 460.6z"/>
    <path fill="#C0C0C1" d="M425.5 459.49 L128.17 459.49 L128.17 162.16 L425.5 162.16 L425.5 459.49 L423.28 457.27 L130.39 457.27 L130.39 164.38 L423.28 164.38 L423.28 457.27 L425.5 459.49z"/>
    <path fill="#C0C0C1" d="M424.39 458.38 L129.28 458.38 L129.28 163.27 L424.39 163.27 L424.39 458.38 L422.17 456.17 L131.5 456.17 L131.5 165.49 L422.17 165.49 L422.17 456.17 L424.39 458.38z"/>
    <path fill="#C1C1C1" d="M423.28 457.27 L130.39 457.27 L130.39 164.38 L423.28 164.38 L423.28 457.27 L421.06 455.06 L132.61 455.06 L132.61 166.6 L421.06 166.6 L421.06 455.06 L423.28 457.27z"/>
    <path fill="#C2C2C2" d="M422.17 456.17 L131.5 456.17 L131.5 165.49 L422.17 165.49 L422.17 456.17 L419.95 453.95 L133.72 453.95 L133.72 167.71 L419.95 167.71 L419.95 453.95 L422.17 456.17z"/>
    <path fill="#C2C2C2" d="M421.06 455.06 L132.61 455.06 L132.61 166.6 L421.06 166.6 L421.06 455.06 L418.84 452.84 L134.83 452.84 L134.83 168.82 L418.84 168.82 L418.84 452.84 L421.06 455.06z"/>
    <path fill="#C3C3C3" d="M419.95 453.95 L133.72 453.95 L133.72 167.71 L419.95 167.71 L419.95 453.95 L417.73 451.73 L135.93 451.73 L135.93 169.93 L417.73 169.93 L417.73 451.73 L419.95 453.95z"/>
    <path fill="#C3C3C4" d="M418.84 452.84 L134.82 452.84 L134.82 168.82 L418.84 168.82 L418.84 452.84 L416.62 450.62 L137.04 450.62 L137.04 171.04 L416.62 171.04 L416.62 450.62 L418.84 452.84z"/>
    <path fill="#C3C3C4" d="M417.73 451.73 L135.93 451.73 L135.93 169.93 L417.73 169.93 L417.73 451.73 L415.51 449.51 L138.15 449.51 L138.15 172.15 L415.51 172.15 L415.51 449.51 L417.73 451.73z"/>
    <path fill="#C4C4C4" d="M416.62 450.62 L137.04 450.62 L137.04 171.04 L416.62 171.04 L416.62 450.62 L414.4 448.4 L139.26 448.4 L139.26 173.26 L414.4 173.26 L414.4 448.4 L416.62 450.62z"/>
    <path fill="#C4C4C4" d="M415.51 449.51 L138.15 449.51 L138.15 172.15 L415.51 172.15 L415.51 449.51 L413.29 447.29 L140.37 447.29 L140.37 174.37 L413.29 174.37 L413.29 447.29 L415.51 449.51z"/>
    <path fill="#C5C5C5" d="M414.4 448.4 L139.26 448.4 L139.26 173.26 L414.4 173.26 L414.4 448.4 L412.18 446.18 L141.48 446.18 L141.48 175.48 L412.18 175.48 L412.18 446.18 L414.4 448.4z"/>
    <path fill="#C6C6C6" d="M413.29 447.29 L140.37 447.29 L140.37 174.37 L413.29 174.37 L413.29 447.29 L411.07 445.07 L142.59 445.07 L142.59 176.59 L411.07 176.59 L411.07 445.07 L413.29 447.29z"/>
    <path fill="#C6C6C6" d="M412.18 446.18 L141.48 446.18 L141.48 175.48 L412.18 175.48 L412.18 446.18 L409.97 443.96 L143.7 443.96 L143.7 177.7 L409.97 177.7 L409.97 443.96 L412.18 446.18z"/>
    <path fill="#C7C7C7" d="M411.08 445.07 L142.59 445.07 L142.59 176.59 L411.08 176.59 L411.08 445.07 L408.86 442.85 L144.81 442.85 L144.81 178.81 L408.86 178.81 L408.86 442.85 L411.08 445.07z"/>
    <path fill="#C7C7C8" d="M409.97 443.96 L143.7 443.96 L143.7 177.7 L409.97 177.7 L409.97 443.96 L407.75 441.74 L145.92 441.74 L145.92 179.92 L407.75 179.92 L407.75 441.74 L409.97 443.96z"/>
    <path fill="#C7C7C8" d="M408.86 442.85 L144.81 442.85 L144.81 178.81 L408.86 178.81 L408.86 442.85 L406.64 440.63 L147.03 440.63 L147.03 181.03 L406.64 181.03 L406.64 440.63 L408.86 442.85z"/>
    <path fill="#C8C8C8" d="M407.75 441.74 L145.92 441.74 L145.92 179.92 L407.75 179.92 L407.75 441.74 L405.53 439.52 L148.14 439.52 L148.14 182.13 L405.53 182.13 L405.53 439.52 L407.75 441.74z"/>
    <path fill="#C9C9C9" d="M406.64 440.63 L147.03 440.63 L147.03 181.03 L406.64 181.03 L406.64 440.63 L404.42 438.41 L149.25 438.41 L149.25 183.24 L404.42 183.24 L404.42 438.41 L406.64 440.63z"/>
    <path fill="#C9C9C9" d="M405.53 439.52 L148.14 439.52 L148.14 182.13 L405.53 182.13 L405.53 439.52 L403.31 437.3 L150.36 437.3 L150.36 184.35 L403.31 184.35 L403.31 437.3 L405.53 439.52z"/>
    <path fill="#CACACA" d="M404.42 438.41 L149.25 438.41 L149.25 183.24 L404.42 183.24 L404.42 438.41 L402.2 436.2 L151.47 436.2 L151.47 185.46 L402.2 185.46 L402.2 436.2 L404.42 438.41z"/>
    <path fill="#CACACB" d="M403.31 437.31 L150.36 437.31 L150.36 184.35 L403.31 184.35 L403.31 437.31 L401.09 435.09 L152.58 435.09 L152.58 186.57 L401.09 186.57 L401.09 435.09 L403.31 437.31z"/>
    <path fill="#CACACB" d="M402.2 436.2 L151.47 436.2 L151.47 185.46 L402.2 185.46 L402.2 436.2 L399.98 433.98 L153.69 433.98 L153.69 187.68 L399.98 187.68 L399.98 433.98 L402.2 436.2z"/>
    <path fill="#CBCBCC" d="M401.09 435.09 L152.58 435.09 L152.58 186.57 L401.09 186.57 L401.09 435.09 L398.87 432.87 L154.8 432.87 L154.8 188.79 L398.87 188.79 L398.87 432.87 L401.09 435.09z"/>
    <path fill="#CCCCCC" d="M399.98 433.98 L153.69 433.98 L153.69 187.68 L399.98 187.68 L399.98 433.98 L397.76 431.76 L155.9 431.76 L155.9 189.9 L397.76 189.9 L397.76 431.76 L399.98 433.98z"/>
    <path fill="#CCCCCC" d="M398.87 432.87 L154.79 432.87 L154.79 188.79 L398.87 188.79 L398.87 432.87 L396.65 430.65 L157.01 430.65 L157.01 191.01 L396.65 191.01 L396.65 430.65 L398.87 432.87z"/>
    <path fill="#CDCDCD" d="M397.76 431.76 L155.9 431.76 L155.9 189.9 L397.76 189.9 L397.76 431.76 L395.54 429.54 L158.12 429.54 L158.12 192.12 L395.54 192.12 L395.54 429.54 L397.76 431.76z"/>
    <path fill="#CDCDCE" d="M396.65 430.65 L157.01 430.65 L157.01 191.01 L396.65 191.01 L396.65 430.65 L394.43 428.43 L159.23 428.43 L159.23 193.23 L394.43 193.23 L394.43 428.43 L396.65 430.65z"/>
    <path fill="#CDCDCE" d="M395.54 429.54 L158.12 429.54 L158.12 192.12 L395.54 192.12 L395.54 429.54 L393.32 427.32 L160.34 427.32 L160.34 194.34 L393.32 194.34 L393.32 427.32 L395.54 429.54z"/>
    <path fill="#CECECF" d="M394.43 428.43 L159.23 428.43 L159.23 193.23 L394.43 193.23 L394.43 428.43 L392.21 426.21 L161.45 426.21 L161.45 195.45 L392.21 195.45 L392.21 426.21 L394.43 428.43z"/>
    <path fill="#CECECF" d="M393.32 427.32 L160.34 427.32 L160.34 194.34 L393.32 194.34 L393.32 427.32 L391.1 425.1 L162.56 425.1 L162.56 196.56 L391.1 196.56 L391.1 425.1 L393.32 427.32z"/>
    <path fill="#CFCFCF" d="M392.21 426.21 L161.45 426.21 L161.45 195.45 L392.21 195.45 L392.21 426.21 L390 423.99 L163.67 423.99 L163.67 197.67 L390 197.67 L390 423.99 L392.21 426.21z"/>
    <path fill="#D0D0D0" d="M391.1 425.1 L162.56 425.1 L162.56 196.56 L391.1 196.56 L391.1 425.1 L388.89 422.88 L164.78 422.88 L164.78 198.78 L388.89 198.78 L388.89 422.88 L391.1 425.1z"/>
    <path fill="#D0D0D0" d="M390 423.99 L163.67 423.99 L163.67 197.67 L390 197.67 L390 423.99 L387.78 421.77 L165.89 421.77 L165.89 199.89 L387.78 199.89 L387.78 421.77 L390 423.99z"/>
    <path fill="#D1D1D1" d="M388.89 422.88 L164.78 422.88 L164.78 198.78 L388.89 198.78 L388.89 422.88 L386.67 420.66 L167 420.66 L167 201 L386.67 201 L386.67 420.66 L388.89 422.88z"/>
    <path fill="#D1D1D2" d="M387.78 421.77 L165.89 421.77 L165.89 199.89 L387.78 199.89 L387.78 421.77 L385.56 419.55 L168.11 419.55 L168.11 202.11 L385.56 202.11 L385.56 419.55 L387.78 421.77z"/>
    <path fill="#D1D1D2" d="M386.67 420.66 L167 420.66 L167 201 L386.67 201 L386.67 420.66 L384.45 418.44 L169.22 418.44 L169.22 203.21 L384.45 203.21 L384.45 418.44 L386.67 420.66z"/>
    <path fill="#D2D2D2" d="M385.56 419.55 L168.11 419.55 L168.11 202.1 L385.56 202.1 L385.56 419.55 L383.34 417.33 L170.33 417.33 L170.33 204.32 L383.34 204.32 L383.34 417.33 L385.56 419.55z"/>
    <path fill="lightgrey" d="M384.45 418.44 L169.22 418.44 L169.22 203.21 L384.45 203.21 L384.45 418.44 L382.23 416.23 L171.44 416.23 L171.44 205.43 L382.23 205.43 L382.23 416.23 L384.45 418.44z"/>
    <path fill="lightgrey" d="M383.34 417.34 L170.33 417.34 L170.33 204.32 L383.34 204.32 L383.34 417.34 L381.12 415.12 L172.55 415.12 L172.55 206.54 L381.12 206.54 L381.12 415.12 L383.34 417.34z"/>
    <path fill="#D4D4D4" d="M382.23 416.23 L171.44 416.23 L171.44 205.43 L382.23 205.43 L382.23 416.23 L380.01 414.01 L173.66 414.01 L173.66 207.65 L380.01 207.65 L380.01 414.01 L382.23 416.23z"/>
    <path fill="#D4D4D5" d="M381.12 415.12 L172.55 415.12 L172.55 206.54 L381.12 206.54 L381.12 415.12 L378.9 412.9 L174.77 412.9 L174.77 208.76 L378.9 208.76 L378.9 412.9 L381.12 415.12z"/>
    <path fill="#D4D4D5" d="M380.01 414.01 L173.66 414.01 L173.66 207.65 L380.01 207.65 L380.01 414.01 L377.79 411.79 L175.87 411.79 L175.87 209.87 L377.79 209.87 L377.79 411.79 L380.01 414.01z"/>
    <path fill="#D5D5D5" d="M378.9 412.9 L174.76 412.9 L174.76 208.76 L378.9 208.76 L378.9 412.9 L376.68 410.68 L176.98 410.68 L176.98 210.98 L376.68 210.98 L376.68 410.68 L378.9 412.9z"/>
    <path fill="#D6D6D6" d="M377.79 411.79 L175.87 411.79 L175.87 209.87 L377.79 209.87 L377.79 411.79 L375.57 409.57 L178.09 409.57 L178.09 212.09 L375.57 212.09 L375.57 409.57 L377.79 411.79z"/>
    <path fill="#D6D6D6" d="M376.68 410.68 L176.98 410.68 L176.98 210.98 L376.68 210.98 L376.68 410.68 L374.46 408.46 L179.2 408.46 L179.2 213.2 L374.46 213.2 L374.46 408.46 L376.68 410.68z"/>
    <path fill="#D7D7D7" d="M375.57 409.57 L178.09 409.57 L178.09 212.09 L375.57 212.09 L375.57 409.57 L373.35 407.35 L180.31 407.35 L180.31 214.31 L373.35 214.31 L373.35 407.35 L375.57 409.57z"/>
    <path fill="#D7D7D8" d="M374.46 408.46 L179.2 408.46 L179.2 213.2 L374.46 213.2 L374.46 408.46 L372.24 406.24 L181.42 406.24 L181.42 215.42 L372.24 215.42 L372.24 406.24 L374.46 408.46z"/>
    <path fill="#D7D7D8" d="M373.35 407.35 L180.31 407.35 L180.31 214.31 L373.35 214.31 L373.35 407.35 L371.13 405.13 L182.53 405.13 L182.53 216.53 L371.13 216.53 L371.13 405.13 L373.35 407.35z"/>
    <path fill="#D8D8D8" d="M372.24 406.24 L181.42 406.24 L181.42 215.42 L372.24 215.42 L372.24 406.24 L370.03 404.02 L183.64 404.02 L183.64 217.64 L370.03 217.64 L370.03 404.02 L372.24 406.24z"/>
    <path fill="#D8D8D8" d="M371.14 405.13 L182.53 405.13 L182.53 216.53 L371.14 216.53 L371.14 405.13 L368.92 402.91 L184.75 402.91 L184.75 218.75 L368.92 218.75 L368.92 402.91 L371.14 405.13z"/>
    <path fill="#D9D9D9" d="M370.03 404.02 L183.64 404.02 L183.64 217.64 L370.03 217.64 L370.03 404.02 L367.81 401.8 L185.86 401.8 L185.86 219.86 L367.81 219.86 L367.81 401.8 L370.03 404.02z"/>
    <path fill="#D9DADA" d="M368.92 402.91 L184.75 402.91 L184.75 218.75 L368.92 218.75 L368.92 402.91 L366.7 400.69 L186.97 400.69 L186.97 220.97 L366.7 220.97 L366.7 400.69 L368.92 402.91z"/>
    <path fill="#D9DADA" d="M367.81 401.8 L185.86 401.8 L185.86 219.86 L367.81 219.86 L367.81 401.8 L365.59 399.58 L188.08 399.58 L188.08 222.07 L365.59 222.07 L365.59 399.58 L367.81 401.8z"/>
    <path fill="#DADADB" d="M366.7 400.69 L186.97 400.69 L186.97 220.97 L366.7 220.97 L366.7 400.69 L364.48 398.47 L189.19 398.47 L189.19 223.18 L364.48 223.18 L364.48 398.47 L366.7 400.69z"/>
    <path fill="#DBDBDB" d="M365.59 399.58 L188.08 399.58 L188.08 222.07 L365.59 222.07 L365.59 399.58 L363.37 397.37 L190.3 397.37 L190.3 224.29 L363.37 224.29 L363.37 397.37 L365.59 399.58z"/>
    <path fill="#DBDBDB" d="M364.48 398.48 L189.19 398.48 L189.19 223.18 L364.48 223.18 L364.48 398.48 L362.26 396.26 L191.41 396.26 L191.41 225.4 L362.26 225.4 L362.26 396.26 L364.48 398.48z"/>
    <path fill="gainsboro" d="M363.37 397.37 L190.3 397.37 L190.3 224.29 L363.37 224.29 L363.37 397.37 L361.15 395.15 L192.52 395.15 L192.52 226.51 L361.15 226.51 L361.15 395.15 L363.37 397.37z"/>
    <path fill="#DCDDDD" d="M362.26 396.26 L191.41 396.26 L191.41 225.4 L362.26 225.4 L362.26 396.26 L360.04 394.04 L193.63 394.04 L193.63 227.62 L360.04 227.62 L360.04 394.04 L362.26 396.26z"/>
    <path fill="#DCDDDD" d="M361.15 395.15 L192.52 395.15 L192.52 226.51 L361.15 226.51 L361.15 395.15 L358.93 392.93 L194.73 392.93 L194.73 228.73 L358.93 228.73 L358.93 392.93 L361.15 395.15z"/>
    <path fill="#DDDDDE" d="M360.04 394.04 L193.63 394.04 L193.63 227.62 L360.04 227.62 L360.04 394.04 L357.82 391.82 L195.84 391.82 L195.84 229.84 L357.82 229.84 L357.82 391.82 L360.04 394.04z"/>
    <path fill="#DEDEDE" d="M358.93 392.93 L194.73 392.93 L194.73 228.73 L358.93 228.73 L358.93 392.93 L356.71 390.71 L196.95 390.71 L196.95 230.95 L356.71 230.95 L356.71 390.71 L358.93 392.93z"/>
    <path fill="#DEDEDE" d="M357.82 391.82 L195.84 391.82 L195.84 229.84 L357.82 229.84 L357.82 391.82 L355.6 389.6 L198.06 389.6 L198.06 232.06 L355.6 232.06 L355.6 389.6 L357.82 391.82z"/>
    <path fill="#DFDFDF" d="M356.71 390.71 L196.95 390.71 L196.95 230.95 L356.71 230.95 L356.71 390.71 L354.49 388.49 L199.17 388.49 L199.17 233.17 L354.49 233.17 L354.49 388.49 L356.71 390.71z"/>
    <path fill="#DFE0E0" d="M355.6 389.6 L198.06 389.6 L198.06 232.06 L355.6 232.06 L355.6 389.6 L353.38 387.38 L200.28 387.38 L200.28 234.28 L353.38 234.28 L353.38 387.38 L355.6 389.6z"/>
    <path fill="#DFE0E0" d="M354.49 388.49 L199.17 388.49 L199.17 233.17 L354.49 233.17 L354.49 388.49 L352.27 386.27 L201.39 386.27 L201.39 235.39 L352.27 235.39 L352.27 386.27 L354.49 388.49z"/>
    <path fill="#E0E0E0" d="M353.38 387.38 L200.28 387.38 L200.28 234.28 L353.38 234.28 L353.38 387.38 L351.16 385.16 L202.5 385.16 L202.5 236.5 L351.16 236.5 L351.16 385.16 L353.38 387.38z"/>
    <path fill="#E0E0E0" d="M352.27 386.27 L201.39 386.27 L201.39 235.39 L352.27 235.39 L352.27 386.27 L350.06 384.05 L203.61 384.05 L203.61 237.61 L350.06 237.61 L350.06 384.05 L352.27 386.27z"/>
    <path fill="#E1E1E1" d="M351.17 385.16 L202.5 385.16 L202.5 236.5 L351.17 236.5 L351.17 385.16 L348.95 382.94 L204.72 382.94 L204.72 238.72 L348.95 238.72 L348.95 382.94 L351.17 385.16z"/>
    <path fill="#E2E2E2" d="M350.06 384.05 L203.61 384.05 L203.61 237.61 L350.06 237.61 L350.06 384.05 L347.84 381.83 L205.83 381.83 L205.83 239.83 L347.84 239.83 L347.84 381.83 L350.06 384.05z"/>
    <path fill="#E2E2E2" d="M348.95 382.94 L204.72 382.94 L204.72 238.72 L348.95 238.72 L348.95 382.94 L346.73 380.72 L206.94 380.72 L206.94 240.94 L346.73 240.94 L346.73 380.72 L348.95 382.94z"/>
    <path fill="#E2E2E3" d="M347.84 381.83 L205.83 381.83 L205.83 239.83 L347.84 239.83 L347.84 381.83 L345.62 379.61 L208.05 379.61 L208.05 242.04 L345.62 242.04 L345.62 379.61 L347.84 381.83z"/>
    <path fill="#E3E3E4" d="M346.73 380.72 L206.94 380.72 L206.94 240.93 L346.73 240.93 L346.73 380.72 L344.51 378.51 L209.16 378.51 L209.16 243.15 L344.51 243.15 L344.51 378.51 L346.73 380.72z"/>
    <path fill="#E3E3E4" d="M345.62 379.61 L208.05 379.61 L208.05 242.04 L345.62 242.04 L345.62 379.61 L343.4 377.4 L210.27 377.4 L210.27 244.26 L343.4 244.26 L343.4 377.4 L345.62 379.61z"/>
    <path fill="#E4E4E4" d="M344.51 378.5 L209.16 378.5 L209.16 243.15 L344.51 243.15 L344.51 378.5 L342.29 376.29 L211.38 376.29 L211.38 245.37 L342.29 245.37 L342.29 376.29 L344.51 378.5z"/>
    <path fill="#E5E5E5" d="M343.4 377.4 L210.27 377.4 L210.27 244.26 L343.4 244.26 L343.4 377.4 L341.18 375.18 L212.49 375.18 L212.49 246.48 L341.18 246.48 L341.18 375.18 L343.4 377.4z"/>
    <path fill="#E5E5E5" d="M342.29 376.29 L211.38 376.29 L211.38 245.37 L342.29 245.37 L342.29 376.29 L340.07 374.07 L213.6 374.07 L213.6 247.59 L340.07 247.59 L340.07 374.07 L342.29 376.29z"/>
    <path fill="#E5E5E6" d="M341.18 375.18 L212.49 375.18 L212.49 246.48 L341.18 246.48 L341.18 375.18 L338.96 372.96 L214.71 372.96 L214.71 248.7 L338.96 248.7 L338.96 372.96 L341.18 375.18z"/>
    <path fill="#E6E6E6" d="M340.07 374.07 L213.6 374.07 L213.6 247.59 L340.07 247.59 L340.07 374.07 L337.85 371.85 L215.81 371.85 L215.81 249.81 L337.85 249.81 L337.85 371.85 L340.07 374.07z"/>
    <path fill="#E6E6E6" d="M338.96 372.96 L214.7 372.96 L214.7 248.7 L338.96 248.7 L338.96 372.96 L336.74 370.74 L216.92 370.74 L216.92 250.92 L336.74 250.92 L336.74 370.74 L338.96 372.96z"/>
    <path fill="#E7E7E7" d="M337.85 371.85 L215.81 371.85 L215.81 249.81 L337.85 249.81 L337.85 371.85 L335.63 369.63 L218.03 369.63 L218.03 252.03 L335.63 252.03 L335.63 369.63 L337.85 371.85z"/>
    <path fill="#E7E8E8" d="M336.74 370.74 L216.92 370.74 L216.92 250.92 L336.74 250.92 L336.74 370.74 L334.52 368.52 L219.14 368.52 L219.14 253.14 L334.52 253.14 L334.52 368.52 L336.74 370.74z"/>
    <path fill="#E7E8E8" d="M335.63 369.63 L218.03 369.63 L218.03 252.03 L335.63 252.03 L335.63 369.63 L333.41 367.41 L220.25 367.41 L220.25 254.25 L333.41 254.25 L333.41 367.41 L335.63 369.63z"/>
    <path fill="#E8E8E9" d="M334.52 368.52 L219.14 368.52 L219.14 253.14 L334.52 253.14 L334.52 368.52 L332.3 366.3 L221.36 366.3 L221.36 255.36 L332.3 255.36 L332.3 366.3 L334.52 368.52z"/>
    <path fill="#E9E9E9" d="M333.41 367.41 L220.25 367.41 L220.25 254.25 L333.41 254.25 L333.41 367.41 L331.2 365.19 L222.47 365.19 L222.47 256.47 L331.2 256.47 L331.2 365.19 L333.41 367.41z"/>
    <path fill="#E9E9E9" d="M332.31 366.3 L221.36 366.3 L221.36 255.36 L332.31 255.36 L332.31 366.3 L330.09 364.08 L223.58 364.08 L223.58 257.58 L330.09 257.58 L330.09 364.08 L332.31 366.3z"/>
    <path fill="#EAEAEA" d="M331.2 365.19 L222.47 365.19 L222.47 256.47 L331.2 256.47 L331.2 365.19 L328.98 362.97 L224.69 362.97 L224.69 258.69 L328.98 258.69 L328.98 362.97 L331.2 365.19z"/>
    <path fill="#EAEAEA" d="M330.09 364.08 L223.58 364.08 L223.58 257.58 L330.09 257.58 L330.09 364.08 L327.87 361.86 L225.8 361.86 L225.8 259.8 L327.87 259.8 L327.87 361.86 L330.09 364.08z"/>
    <path fill="#EAEAEB" d="M328.98 362.97 L224.69 362.97 L224.69 258.69 L328.98 258.69 L328.98 362.97 L326.76 360.75 L226.91 360.75 L226.91 260.91 L326.76 260.91 L326.76 360.75 L328.98 362.97z"/>
    <path fill="#EBEBEB" d="M327.87 361.86 L225.8 361.86 L225.8 259.8 L327.87 259.8 L327.87 361.86 L325.65 359.64 L228.02 359.64 L228.02 262.01 L325.65 262.01 L325.65 359.64 L327.87 361.86z"/>
    <path fill="#EBEBEB" d="M326.76 360.75 L226.91 360.75 L226.91 260.91 L326.76 260.91 L326.76 360.75 L324.54 358.54 L229.13 358.54 L229.13 263.12 L324.54 263.12 L324.54 358.54 L326.76 360.75z"/>
    <path fill="#ECECEC" d="M325.65 359.64 L228.02 359.64 L228.02 262.01 L325.65 262.01 L325.65 359.64 L323.43 357.43 L230.24 357.43 L230.24 264.23 L323.43 264.23 L323.43 357.43 L325.65 359.64z"/>
    <path fill="#ECEDED" d="M324.54 358.54 L229.13 358.54 L229.13 263.12 L324.54 263.12 L324.54 358.54 L322.32 356.32 L231.35 356.32 L231.35 265.34 L322.32 265.34 L322.32 356.32 L324.54 358.54z"/>
    <path fill="#ECEDED" d="M323.43 357.43 L230.24 357.43 L230.24 264.23 L323.43 264.23 L323.43 357.43 L321.21 355.21 L232.46 355.21 L232.46 266.45 L321.21 266.45 L321.21 355.21 L323.43 357.43z"/>
    <path fill="#EDEDEE" d="M322.32 356.32 L231.35 356.32 L231.35 265.34 L322.32 265.34 L322.32 356.32 L320.1 354.1 L233.57 354.1 L233.57 267.56 L320.1 267.56 L320.1 354.1 L322.32 356.32z"/>
    <path fill="#EEEEEE" d="M321.21 355.21 L232.46 355.21 L232.46 266.45 L321.21 266.45 L321.21 355.21 L318.99 352.99 L234.67 352.99 L234.67 268.67 L318.99 268.67 L318.99 352.99 L321.21 355.21z"/>
    <path fill="#EEEEEE" d="M320.1 354.1 L233.57 354.1 L233.57 267.56 L320.1 267.56 L320.1 354.1 L317.88 351.88 L235.78 351.88 L235.78 269.78 L317.88 269.78 L317.88 351.88 L320.1 354.1z"/>
    <path fill="#EFEFEF" d="M318.99 352.99 L234.67 352.99 L234.67 268.67 L318.99 268.67 L318.99 352.99 L316.77 350.77 L236.89 350.77 L236.89 270.89 L316.77 270.89 L316.77 350.77 L318.99 352.99z"/>
    <path fill="#EFEFF0" d="M317.88 351.88 L235.78 351.88 L235.78 269.78 L317.88 269.78 L317.88 351.88 L315.66 349.66 L238 349.66 L238 272 L315.66 272 L315.66 349.66 L317.88 351.88z"/>
    <path fill="#EFEFF0" d="M316.77 350.77 L236.89 350.77 L236.89 270.89 L316.77 270.89 L316.77 350.77 L314.55 348.55 L239.11 348.55 L239.11 273.11 L314.55 273.11 L314.55 348.55 L316.77 350.77z"/>
    <path fill="#F0F0F0" d="M315.66 349.66 L238 349.66 L238 272 L315.66 272 L315.66 349.66 L313.44 347.44 L240.22 347.44 L240.22 274.22 L313.44 274.22 L313.44 347.44 L315.66 349.66z"/>
    <path fill="#F1F1F1" d="M314.55 348.55 L239.11 348.55 L239.11 273.11 L314.55 273.11 L314.55 348.55 L312.33 346.33 L241.33 346.33 L241.33 275.33 L312.33 275.33 L312.33 346.33 L314.55 348.55z"/>
    <path fill="#F1F1F1" d="M313.44 347.44 L240.22 347.44 L240.22 274.22 L313.44 274.22 L313.44 347.44 L311.22 345.22 L242.44 345.22 L242.44 276.44 L311.22 276.44 L311.22 345.22 L313.44 347.44z"/>
    <path fill="#F1F1F2" d="M312.33 346.33 L241.33 346.33 L241.33 275.33 L312.33 275.33 L312.33 346.33 L310.12 344.11 L243.55 344.11 L243.55 277.55 L310.12 277.55 L310.12 344.11 L312.33 346.33z"/>
    <path fill="#F2F2F3" d="M311.23 345.22 L242.44 345.22 L242.44 276.44 L311.23 276.44 L311.23 345.22 L309.01 343 L244.66 343 L244.66 278.66 L309.01 278.66 L309.01 343 L311.23 345.22z"/>
    <path fill="#F2F2F3" d="M310.12 344.11 L243.55 344.11 L243.55 277.55 L310.12 277.55 L310.12 344.11 L307.9 341.89 L245.77 341.89 L245.77 279.77 L307.9 279.77 L307.9 341.89 L310.12 344.11z"/>
    <path fill="#F3F3F3" d="M309.01 343 L244.66 343 L244.66 278.66 L309.01 278.66 L309.01 343 L306.79 340.78 L246.88 340.78 L246.88 280.88 L306.79 280.88 L306.79 340.78 L309.01 343z"/>
    <path fill="#F3F3F3" d="M307.9 341.89 L245.77 341.89 L245.77 279.77 L307.9 279.77 L307.9 341.89 L305.68 339.67 L247.99 339.67 L247.99 281.98 L305.68 281.98 L305.68 339.67 L307.9 341.89z"/>
    <path fill="#F4F4F4" d="M306.79 340.78 L246.88 340.78 L246.88 280.87 L306.79 280.87 L306.79 340.78 L304.57 338.57 L249.1 338.57 L249.1 283.09 L304.57 283.09 L304.57 338.57 L306.79 340.78z"/>
    <path fill="#F4F4F5" d="M305.68 339.67 L247.99 339.67 L247.99 281.98 L305.68 281.98 L305.68 339.67 L303.46 337.46 L250.21 337.46 L250.21 284.2 L303.46 284.2 L303.46 337.46 L305.68 339.67z"/>
    <path fill="#F4F4F5" d="M304.57 338.57 L249.1 338.57 L249.1 283.09 L304.57 283.09 L304.57 338.57 L302.35 336.35 L251.32 336.35 L251.32 285.31 L302.35 285.31 L302.35 336.35 L304.57 338.57z"/>
    <path fill="whitesmoke" d="M303.46 337.46 L250.21 337.46 L250.21 284.2 L303.46 284.2 L303.46 337.46 L301.24 335.24 L252.43 335.24 L252.43 286.42 L301.24 286.42 L301.24 335.24 L303.46 337.46z"/>
    <path fill="#F6F6F6" d="M302.35 336.35 L251.32 336.35 L251.32 285.31 L302.35 285.31 L302.35 336.35 L300.13 334.13 L253.53 334.13 L253.53 287.53 L300.13 287.53 L300.13 334.13 L302.35 336.35z"/>
    <path fill="#F6F6F6" d="M301.24 335.24 L252.43 335.24 L252.43 286.42 L301.24 286.42 L301.24 335.24 L299.02 333.02 L254.64 333.02 L254.64 288.64 L299.02 288.64 L299.02 333.02 L301.24 335.24z"/>
    <path fill="#F6F7F7" d="M300.13 334.13 L253.53 334.13 L253.53 287.53 L300.13 287.53 L300.13 334.13 L297.91 331.91 L255.75 331.91 L255.75 289.75 L297.91 289.75 L297.91 331.91 L300.13 334.13z"/>
    <path fill="#F7F7F7" d="M299.02 333.02 L254.64 333.02 L254.64 288.64 L299.02 288.64 L299.02 333.02 L296.8 330.8 L256.86 330.8 L256.86 290.86 L296.8 290.86 L296.8 330.8 L299.02 333.02z"/>
    <path fill="#F7F7F7" d="M297.91 331.91 L255.75 331.91 L255.75 289.75 L297.91 289.75 L297.91 331.91 L295.69 329.69 L257.97 329.69 L257.97 291.97 L295.69 291.97 L295.69 329.69 L297.91 331.91z"/>
    <path fill="#F8F8F8" d="M296.8 330.8 L256.86 330.8 L256.86 290.86 L296.8 290.86 L296.8 330.8 L294.58 328.58 L259.08 328.58 L259.08 293.08 L294.58 293.08 L294.58 328.58 L296.8 330.8z"/>
    <path fill="#F9F9F9" d="M295.69 329.69 L257.97 329.69 L257.97 291.97 L295.69 291.97 L295.69 329.69 L293.47 327.47 L260.19 327.47 L260.19 294.19 L293.47 294.19 L293.47 327.47 L295.69 329.69z"/>
    <path fill="#F9F9F9" d="M294.58 328.58 L259.08 328.58 L259.08 293.08 L294.58 293.08 L294.58 328.58 L292.36 326.36 L261.3 326.36 L261.3 295.3 L292.36 295.3 L292.36 326.36 L294.58 328.58z"/>
    <path fill="#F9F9FA" d="M293.47 327.47 L260.19 327.47 L260.19 294.19 L293.47 294.19 L293.47 327.47 L291.26 325.25 L262.41 325.25 L262.41 296.41 L291.26 296.41 L291.26 325.25 L293.47 327.47z"/>
    <path fill="#FAFAFA" d="M292.37 326.36 L261.3 326.36 L261.3 295.3 L292.37 295.3 L292.37 326.36 L290.15 324.14 L263.52 324.14 L263.52 297.52 L290.15 297.52 L290.15 324.14 L292.37 326.36z"/>
    <path fill="#FAFAFA" d="M291.26 325.25 L262.41 325.25 L262.41 296.41 L291.26 296.41 L291.26 325.25 L289.04 323.03 L264.63 323.03 L264.63 298.63 L289.04 298.63 L289.04 323.03 L291.26 325.25z"/>
    <path fill="#FBFBFB" d="M290.15 324.14 L263.52 324.14 L263.52 297.52 L290.15 297.52 L290.15 324.14 L287.93 321.92 L265.74 321.92 L265.74 299.74 L287.93 299.74 L287.93 321.92 L290.15 324.14z"/>
    <path fill="#FBFBFC" d="M289.04 323.03 L264.63 323.03 L264.63 298.63 L289.04 298.63 L289.04 323.03 L286.82 320.81 L266.85 320.81 L266.85 300.85 L286.82 300.85 L286.82 320.81 L289.04 323.03z"/>
    <path fill="#FBFBFC" d="M287.93 321.92 L265.74 321.92 L265.74 299.74 L287.93 299.74 L287.93 321.92 L285.71 319.7 L267.96 319.7 L267.96 301.95 L285.71 301.95 L285.71 319.7 L287.93 321.92z"/>
    <path fill="#FCFCFC" d="M286.82 320.81 L266.85 320.81 L266.85 300.84 L286.82 300.84 L286.82 320.81 L284.6 318.6 L269.07 318.6 L269.07 303.06 L284.6 303.06 L284.6 318.6 L286.82 320.81z"/>
    <path fill="#FCFCFC" d="M285.71 319.7 L267.96 319.7 L267.96 301.95 L285.71 301.95 L285.71 319.7 L283.49 317.49 L270.18 317.49 L270.18 304.17 L283.49 304.17 L283.49 317.49 L285.71 319.7z"/>
    <path fill="#FDFDFD" d="M284.6 318.6 L269.07 318.6 L269.07 303.06 L284.6 303.06 L284.6 318.6 L282.38 316.38 L271.29 316.38 L271.29 305.28 L282.38 305.28 L282.38 316.38 L284.6 318.6z"/>
    <path fill="#FDFDFE" d="M283.49 317.49 L270.18 317.49 L270.18 304.17 L283.49 304.17 L283.49 317.49 L281.27 315.27 L272.4 315.27 L272.4 306.39 L281.27 306.39 L281.27 315.27 L283.49 317.49z"/>
    <path fill="#FDFDFE" d="M282.38 316.38 L271.29 316.38 L271.29 305.28 L282.38 305.28 L282.38 316.38 L280.16 314.16 L273.51 314.16 L273.51 307.5 L280.16 307.5 L280.16 314.16 L282.38 316.38z"/>
    <path fill="#FEFEFE" d="M281.27 315.27 L272.4 315.27 L272.4 306.39 L281.27 306.39 L281.27 315.27 L279.05 313.05 L274.61 313.05 L274.61 308.61 L279.05 308.61 L279.05 313.05 L281.27 315.27z"/>
    <path fill="white" d="M280.16 314.16 L273.51 314.16 L273.51 307.5 L280.16 307.5 L280.16 314.16 L277.94 311.94 L275.72 311.94 L275.72 309.72 L277.94 309.72 L277.94 311.94 L280.16 314.16z"/>
    <path fill="white" d="M279.05 313.05 L274.61 313.05 L274.61 308.61 L279.05 308.61 L279.05 313.05 L276.83 310.83 L276.83 310.83 L276.83 310.83 L276.83 310.83 L276.83 310.83 L279.05 313.05z"/>
    <path fill="white" d="M277.94 311.94 L275.72 311.94 L275.72 309.72 L277.94 309.72 L277.94 311.94 L277.94 311.94z"/>
   </mask>
 </defs>
 <g id="Layer_x0020_1">
  <metadata id="CorelCorpID_0Corel-Layer"/>
  <path class="fil0" d="M78.12 199.89c7.01,12.23 19.64,20.06 35.03,20.06 18.13,0 31.73,-10.58 31.73,-27.2 0,-12.23 -7.15,-19.78 -22.39,-26.51l-10.3 -4.53c-7.7,-3.44 -10.58,-5.64 -10.58,-10.44 0,-5.64 4.81,-8.79 11.26,-8.79 6.87,0 12.64,3.43 17.31,10.43l12.64 -9.75c-5.63,-10.44 -16.07,-17.17 -29.95,-17.17 -17.17,0 -30.08,10.17 -30.08,25.69 0,12.09 8.1,19.92 21.98,26.1l9.75 4.39c8.65,3.99 11.54,5.91 11.54,11.27 0,6.18 -4.81,10.02 -12.91,10.02 -9.89,0 -16.35,-5.08 -22.26,-13.18l-12.77 9.61z"/>
  <path id="1" class="fil0" d="M202.98 202.78c-4.8,0.41 -7.69,0.55 -8.79,0.55 -8.79,0 -12.64,-2.89 -12.64,-10.58l0 -26.79 19.23 0 0 -15.66 -19.23 0 0 -17.17 -18.54 0 0 17.17 -10.71 0 0 15.66 10.71 0 0 28.44c0,17.03 10.03,25.55 27.2,25.55 4.12,0 8.38,-0.55 12.77,-1.65l0 -15.52z"/>
  <path id="2" class="fil0" d="M215.76 188.35c0,18.96 13.32,31.6 31.45,31.6 17.72,0 31.18,-12.64 31.18,-31.6l0 -38.05 -18.54 0 0 39.57c0,7.82 -5.49,13.04 -12.64,13.04 -7.55,0 -12.91,-5.22 -12.91,-13.04l0 -39.57 -18.54 0 0 38.05z"/>
  <path id="3" class="fil0" d="M345.57 115.28l0 41.62c-4.95,-5.36 -11.68,-8.11 -20.33,-8.11 -18.96,0 -32.97,15.11 -32.97,35.58 0,20.47 14.01,35.58 32.97,35.58 9.34,0 17.3,-3.57 21.84,-10.03l0 8.38 17.03 0 0 -103.02 -18.54 0zm0.27 69.09c0,12.23 -7.83,18.68 -17.17,18.68 -10.03,0 -17.58,-7.42 -17.58,-18.82 0,-11.12 7.69,-18.68 17.58,-18.68 9.34,0 17.17,6.73 17.17,18.82z"/>
  <path id="4" class="fil0" d="M382.52 218.3l18.54 0 0 -68 -18.54 0 0 68zm-2.61 -92.72c0,6.46 5.22,11.4 11.81,11.4 6.59,0 11.95,-4.94 11.95,-11.4 0,-6.59 -5.36,-11.54 -11.95,-11.54 -6.59,0 -11.81,4.95 -11.81,11.54z"/>
  <path id="5" class="fil0" d="M415.62 184.23c-0.41,19.37 16.35,35.99 36.26,35.58 19.92,0.41 37.09,-16.21 36.68,-35.58 0.41,-19.36 -16.62,-35.71 -36.54,-35.44 -19.92,-0.41 -36.81,16.08 -36.4,35.44zm53.98 0.14c0,10.58 -7.55,18.41 -17.58,18.41 -10.3,0 -17.58,-7.83 -17.58,-18.41 0,-10.85 7.28,-18.68 17.58,-18.68 10.03,0 17.58,8.1 17.58,18.68z"/>
  <polygon class="fil1" style="mask:url(#id0)" points="0,249.84 553.67,249.84 553.67,374.3 0,374.3 "/>
  <path class="fil2" d="M77.18 298.13l9.5 0c9.86,0 16.47,-6.37 16.47,-15.18 0,-8.95 -6.56,-15.09 -16.47,-15.09l-9.5 0 0 30.27zm4.86 -4.36l0 -21.51 4.59 0c7.07,0 11.52,4.27 11.52,10.69 0,6.33 -4.5,10.82 -11.52,10.82l-4.59 0z"/>
  <path id="1" class="fil2" d="M108.63 282.99c-0.18,8.67 7.2,15.78 15.87,15.65 8.58,0.13 16.1,-6.98 15.92,-15.65 0.18,-8.67 -7.34,-15.78 -15.92,-15.64 -8.62,-0.14 -16.01,6.97 -15.87,15.64zm26.79 -0.04c0,6.47 -4.68,11.24 -10.87,11.24 -6.29,0 -10.87,-4.77 -10.87,-11.24 0,-6.38 4.58,-11.15 10.87,-11.15 6.19,0 10.87,4.82 10.87,11.15z"/>
  <path id="2" class="fil2" d="M145.95 282.99c-0.14,8.67 7.11,15.78 15.96,15.65 6.1,0 11.42,-3.17 14.13,-7.99l0 -8.53 -14.17 0 0 4.31 9.31 0 0 3.26c-1.88,2.89 -5.05,4.59 -9.04,4.59 -6.51,0 -11.14,-4.86 -11.14,-11.33 0,-6.38 4.49,-11.15 10.87,-11.15 3.76,0 6.79,1.61 9.03,4.77l3.54 -2.89c-2.89,-4.03 -7.25,-6.33 -12.53,-6.33 -8.76,-0.14 -16.14,6.97 -15.96,15.64z"/>
  <path id="3" class="fil2" d="M193.66 282.99c-0.14,8.67 7.1,15.78 15.96,15.65 6.1,0 11.42,-3.17 14.13,-7.99l0 -8.53 -14.18 0 0 4.31 9.31 0 0 3.26c-1.88,2.89 -5.04,4.59 -9.03,4.59 -6.52,0 -11.15,-4.86 -11.15,-11.33 0,-6.38 4.5,-11.15 10.87,-11.15 3.76,0 6.79,1.61 9.04,4.77l3.53 -2.89c-2.89,-4.03 -7.25,-6.33 -12.52,-6.33 -8.76,-0.14 -16.15,6.97 -15.96,15.64z"/>
  <path id="4" class="fil2" d="M255.84 298.13l-9.09 -12.48c3.63,-1.42 5.83,-4.54 5.83,-8.53 0,-5.46 -4.18,-9.26 -10.28,-9.26l-11.05 0 0 30.27 4.86 0 0 -11.7 5.55 0 8.63 11.7 5.55 0zm-19.73 -25.96l6.1 0c3.35,0 5.37,2.02 5.37,5 0,2.93 -2.02,4.95 -5.37,4.95l-6.1 0 0 -9.95z"/>
  <path id="5" class="fil2" d="M259.21 282.99c-0.18,8.67 7.2,15.78 15.87,15.65 8.58,0.13 16.1,-6.98 15.92,-15.65 0.18,-8.67 -7.34,-15.78 -15.92,-15.64 -8.62,-0.14 -16.01,6.97 -15.87,15.64zm26.79 -0.04c0,6.47 -4.68,11.24 -10.87,11.24 -6.29,0 -10.87,-4.77 -10.87,-11.24 0,-6.38 4.58,-11.15 10.87,-11.15 6.19,0 10.87,4.82 10.87,11.15z"/>
  <path id="6" class="fil2" d="M296.53 282.99c-0.18,8.67 7.2,15.78 15.87,15.65 8.58,0.13 16.1,-6.98 15.92,-15.65 0.18,-8.67 -7.34,-15.78 -15.92,-15.64 -8.62,-0.14 -16.01,6.97 -15.87,15.64zm26.79 -0.04c0,6.47 -4.68,11.24 -10.87,11.24 -6.29,0 -10.87,-4.77 -10.87,-11.24 0,-6.38 4.58,-11.15 10.87,-11.15 6.19,0 10.87,4.82 10.87,11.15z"/>
  <polygon id="7" class="fil2" points="362.79,267.35 350.09,284.28 337.38,267.35 335.69,267.35 335.69,298.13 340.55,298.13 340.55,279.09 349.26,290.52 350.91,290.52 359.58,279.14 359.58,298.13 364.45,298.13 364.45,267.35 "/>
  <polygon id="8" class="fil2" points="373.6,298.13 378.46,298.13 378.46,267.86 373.6,267.86 "/>
  <polygon id="9" class="fil2" points="407.71,267.86 407.71,288.27 389.32,267.35 387.62,267.35 387.62,298.13 392.48,298.13 392.48,277.63 410.92,298.64 412.57,298.64 412.57,267.86 "/>
  <path id="10" class="fil2" d="M419.94 282.99c-0.14,8.67 7.11,15.78 15.96,15.65 6.1,0 11.42,-3.17 14.13,-7.99l0 -8.53 -14.17 0 0 4.31 9.31 0 0 3.26c-1.88,2.89 -5.05,4.59 -9.04,4.59 -6.51,0 -11.15,-4.86 -11.15,-11.33 0,-6.38 4.5,-11.15 10.88,-11.15 3.76,0 6.78,1.61 9.03,4.77l3.53 -2.89c-2.89,-4.03 -7.24,-6.33 -12.52,-6.33 -8.76,-0.14 -16.15,6.97 -15.96,15.64z"/>
  <path id="11" class="fil2" d="M488.97 284.69l-3.85 -2.66c-0.69,0.96 -1.15,1.7 -1.47,2.2 -1.51,2.25 -2.43,3.63 -2.84,4.18l-5.46 -6.56c3.62,-2.8 5.18,-5.28 5.18,-8.08 0,-3.8 -2.93,-6.42 -7.11,-6.42 -4.36,0 -7.25,2.75 -7.25,6.93 0,2.25 0.92,4.36 2.94,6.93 -2.39,1.83 -4.08,3.44 -5.05,4.81 -0.96,1.38 -1.42,2.89 -1.42,4.5 0,4.72 3.99,8.12 9.59,8.12 3.35,0 6.01,-1.15 8.53,-3.35l2.34 2.84 5.73 0 -5.04 -6.1c0.82,-1.01 2.11,-2.8 3.85,-5.41l1.33 -1.93zm-18.3 -10.37c0,-1.78 1.01,-2.75 2.71,-2.75 1.65,0 2.66,0.97 2.66,2.57 0,1.61 -0.88,2.8 -3.21,4.63 -1.52,-1.97 -2.16,-3.12 -2.16,-4.45zm7.2 17.48c-1.74,1.65 -3.53,2.48 -5.41,2.48 -2.89,0 -4.86,-1.79 -4.86,-4.22 0,-0.92 0.27,-1.75 0.82,-2.48 0.55,-0.73 1.7,-1.79 3.4,-3.12l6.05 7.34z"/>
  <polygon id="12" class="fil2" points="44.37,355.79 49.23,355.79 49.23,329.87 59.46,329.87 59.46,325.51 34.18,325.51 34.18,329.87 44.37,329.87 "/>
  <path id="13" class="fil2" d="M90.13 355.79l-9.08 -12.48c3.62,-1.42 5.82,-4.54 5.82,-8.53 0,-5.46 -4.17,-9.27 -10.27,-9.27l-11.06 0 0 30.28 4.86 0 0 -11.7 5.55 0 8.63 11.7 5.55 0zm-19.73 -25.96l6.1 0c3.35,0 5.37,2.01 5.37,5 0,2.93 -2.02,4.95 -5.37,4.95l-6.1 0 0 -9.95z"/>
  <path id="14" class="fil2" d="M116.35 355.79l5.23 0 -13.35 -30.78 -1.65 0 -13.35 30.78 5.18 0 2.16 -5.05 13.62 0 2.16 5.05zm-3.9 -9.22l-10.14 0 5.09 -12.52 5.05 12.52z"/>
  <polygon id="15" class="fil2" points="127.93,355.79 132.79,355.79 132.79,325.51 127.93,325.51 "/>
  <polygon id="16" class="fil2" points="162.04,325.51 162.04,345.93 143.65,325.01 141.95,325.01 141.95,355.79 146.81,355.79 146.81,335.28 165.25,356.29 166.9,356.29 166.9,325.51 "/>
  <polygon id="17" class="fil2" points="176.1,355.79 180.97,355.79 180.97,325.51 176.1,325.51 "/>
  <polygon id="18" class="fil2" points="210.21,325.51 210.21,345.93 191.82,325.01 190.12,325.01 190.12,355.79 194.98,355.79 194.98,335.28 213.42,356.29 215.08,356.29 215.08,325.51 "/>
  <path id="19" class="fil2" d="M222.44 340.65c-0.14,8.67 7.11,15.78 15.96,15.64 6.1,0 11.43,-3.16 14.13,-7.98l0 -8.53 -14.17 0 0 4.31 9.31 0 0 3.26c-1.88,2.89 -5.05,4.59 -9.04,4.59 -6.51,0 -11.14,-4.87 -11.14,-11.33 0,-6.38 4.49,-11.15 10.87,-11.15 3.76,0 6.79,1.61 9.03,4.77l3.54 -2.89c-2.89,-4.04 -7.25,-6.33 -12.53,-6.33 -8.76,-0.14 -16.14,6.97 -15.96,15.64z"/>
  <path id="20" class="fil2" d="M290.01 355.79l5.23 0 -13.35 -30.78 -1.65 0 -13.35 30.78 5.18 0 2.16 -5.05 13.62 0 2.16 5.05zm-3.9 -9.22l-10.14 0 5.09 -12.52 5.05 12.52z"/>
  <path id="21" class="fil2" d="M299.03 340.65c-0.19,8.67 7.29,15.78 15.91,15.64 5.64,0 10.41,-2.7 12.98,-6.97l-3.67 -2.71c-2.15,3.35 -5.27,5.23 -9.26,5.23 -6.19,0 -10.92,-4.77 -10.92,-11.19 0,-6.42 4.73,-11.19 10.92,-11.19 3.99,0 7.11,1.88 9.26,5.23l3.67 -2.71c-2.61,-4.26 -7.43,-6.97 -12.98,-6.97 -8.62,-0.14 -16.1,6.97 -15.91,15.64z"/>
  <path id="22" class="fil2" d="M355.15 355.79l5.23 0 -13.35 -30.78 -1.65 0 -13.35 30.78 5.19 0 2.15 -5.05 13.63 0 2.15 5.05zm-3.9 -9.22l-10.13 0 5.09 -12.52 5.04 12.52z"/>
  <path id="23" class="fil2" d="M366.74 355.79l9.49 0c9.86,0 16.47,-6.38 16.47,-15.18 0,-8.95 -6.56,-15.1 -16.47,-15.1l-9.49 0 0 30.28zm4.86 -4.36l0 -21.51 4.59 0c7.06,0 11.51,4.26 11.51,10.69 0,6.33 -4.5,10.82 -11.51,10.82l-4.59 0z"/>
  <polygon id="24" class="fil2" points="400.02,355.79 420.48,355.79 420.48,351.43 404.88,351.43 404.88,341.84 416.21,341.84 416.21,337.62 404.88,337.62 404.88,329.87 419.93,329.87 419.93,325.51 400.02,325.51 "/>
  <polygon id="25" class="fil2" points="454.77,325.01 442.07,341.94 429.36,325.01 427.66,325.01 427.66,355.79 432.52,355.79 432.52,336.75 441.24,348.17 442.89,348.17 451.56,336.8 451.56,355.79 456.42,355.79 456.42,325.01 "/>
  <polygon id="26" class="fil2" points="488.88,325.51 483.51,325.51 475.99,338.68 468.51,325.51 463.1,325.51 473.56,343.59 473.56,355.79 478.42,355.79 478.42,343.59 "/>
  <path id="27" class="fil3 str0" d="M77.18 298.13l9.5 0c9.86,0 16.47,-6.37 16.47,-15.18 0,-8.95 -6.56,-15.09 -16.47,-15.09l-9.5 0 0 30.27zm4.86 -4.36l0 -21.51 4.59 0c7.07,0 11.52,4.27 11.52,10.69 0,6.33 -4.5,10.82 -11.52,10.82l-4.59 0z"/>
  <path id="28" class="fil3 str0" d="M108.63 282.99c-0.18,8.67 7.2,15.78 15.87,15.65 8.58,0.13 16.1,-6.98 15.92,-15.65 0.18,-8.67 -7.34,-15.78 -15.92,-15.64 -8.62,-0.14 -16.01,6.97 -15.87,15.64zm26.79 -0.04c0,6.47 -4.68,11.24 -10.87,11.24 -6.29,0 -10.87,-4.77 -10.87,-11.24 0,-6.38 4.58,-11.15 10.87,-11.15 6.19,0 10.87,4.82 10.87,11.15z"/>
  <path id="29" class="fil3 str0" d="M145.95 282.99c-0.14,8.67 7.11,15.78 15.96,15.65 6.1,0 11.42,-3.17 14.13,-7.99l0 -8.53 -14.17 0 0 4.31 9.31 0 0 3.26c-1.88,2.89 -5.05,4.59 -9.04,4.59 -6.51,0 -11.14,-4.86 -11.14,-11.33 0,-6.38 4.49,-11.15 10.87,-11.15 3.76,0 6.79,1.61 9.03,4.77l3.54 -2.89c-2.89,-4.03 -7.25,-6.33 -12.53,-6.33 -8.76,-0.14 -16.14,6.97 -15.96,15.64z"/>
  <path id="30" class="fil3 str0" d="M193.66 282.99c-0.14,8.67 7.1,15.78 15.96,15.65 6.1,0 11.42,-3.17 14.13,-7.99l0 -8.53 -14.18 0 0 4.31 9.31 0 0 3.26c-1.88,2.89 -5.04,4.59 -9.03,4.59 -6.52,0 -11.15,-4.86 -11.15,-11.33 0,-6.38 4.5,-11.15 10.87,-11.15 3.76,0 6.79,1.61 9.04,4.77l3.53 -2.89c-2.89,-4.03 -7.25,-6.33 -12.52,-6.33 -8.76,-0.14 -16.15,6.97 -15.96,15.64z"/>
  <path id="31" class="fil3 str0" d="M255.84 298.13l-9.09 -12.48c3.63,-1.42 5.83,-4.54 5.83,-8.53 0,-5.46 -4.18,-9.26 -10.28,-9.26l-11.05 0 0 30.27 4.86 0 0 -11.7 5.55 0 8.63 11.7 5.55 0zm-19.73 -25.96l6.1 0c3.35,0 5.37,2.02 5.37,5 0,2.93 -2.02,4.95 -5.37,4.95l-6.1 0 0 -9.95z"/>
  <path id="32" class="fil3 str0" d="M259.21 282.99c-0.18,8.67 7.2,15.78 15.87,15.65 8.58,0.13 16.1,-6.98 15.92,-15.65 0.18,-8.67 -7.34,-15.78 -15.92,-15.64 -8.62,-0.14 -16.01,6.97 -15.87,15.64zm26.79 -0.04c0,6.47 -4.68,11.24 -10.87,11.24 -6.29,0 -10.87,-4.77 -10.87,-11.24 0,-6.38 4.58,-11.15 10.87,-11.15 6.19,0 10.87,4.82 10.87,11.15z"/>
  <path id="33" class="fil3 str0" d="M296.53 282.99c-0.18,8.67 7.2,15.78 15.87,15.65 8.58,0.13 16.1,-6.98 15.92,-15.65 0.18,-8.67 -7.34,-15.78 -15.92,-15.64 -8.62,-0.14 -16.01,6.97 -15.87,15.64zm26.79 -0.04c0,6.47 -4.68,11.24 -10.87,11.24 -6.29,0 -10.87,-4.77 -10.87,-11.24 0,-6.38 4.58,-11.15 10.87,-11.15 6.19,0 10.87,4.82 10.87,11.15z"/>
  <polygon id="34" class="fil3 str0" points="362.79,267.35 350.09,284.28 337.38,267.35 335.69,267.35 335.69,298.13 340.55,298.13 340.55,279.09 349.26,290.52 350.91,290.52 359.58,279.14 359.58,298.13 364.45,298.13 364.45,267.35 "/>
  <polygon id="35" class="fil3 str0" points="373.6,298.13 378.46,298.13 378.46,267.86 373.6,267.86 "/>
  <polygon id="36" class="fil3 str0" points="407.71,267.86 407.71,288.27 389.32,267.35 387.62,267.35 387.62,298.13 392.48,298.13 392.48,277.63 410.92,298.64 412.57,298.64 412.57,267.86 "/>
  <path id="37" class="fil3 str0" d="M419.94 282.99c-0.14,8.67 7.11,15.78 15.96,15.65 6.1,0 11.42,-3.17 14.13,-7.99l0 -8.53 -14.17 0 0 4.31 9.31 0 0 3.26c-1.88,2.89 -5.05,4.59 -9.04,4.59 -6.51,0 -11.15,-4.86 -11.15,-11.33 0,-6.38 4.5,-11.15 10.88,-11.15 3.76,0 6.78,1.61 9.03,4.77l3.53 -2.89c-2.89,-4.03 -7.24,-6.33 -12.52,-6.33 -8.76,-0.14 -16.15,6.97 -15.96,15.64z"/>
  <path id="38" class="fil3 str0" d="M488.97 284.69l-3.85 -2.66c-0.69,0.96 -1.15,1.7 -1.47,2.2 -1.51,2.25 -2.43,3.63 -2.84,4.18l-5.46 -6.56c3.62,-2.8 5.18,-5.28 5.18,-8.08 0,-3.8 -2.93,-6.42 -7.11,-6.42 -4.36,0 -7.25,2.75 -7.25,6.93 0,2.25 0.92,4.36 2.94,6.93 -2.39,1.83 -4.08,3.44 -5.05,4.81 -0.96,1.38 -1.42,2.89 -1.42,4.5 0,4.72 3.99,8.12 9.59,8.12 3.35,0 6.01,-1.15 8.53,-3.35l2.34 2.84 5.73 0 -5.04 -6.1c0.82,-1.01 2.11,-2.8 3.85,-5.41l1.33 -1.93zm-18.3 -10.37c0,-1.78 1.01,-2.75 2.71,-2.75 1.65,0 2.66,0.97 2.66,2.57 0,1.61 -0.88,2.8 -3.21,4.63 -1.52,-1.97 -2.16,-3.12 -2.16,-4.45zm7.2 17.48c-1.74,1.65 -3.53,2.48 -5.41,2.48 -2.89,0 -4.86,-1.79 -4.86,-4.22 0,-0.92 0.27,-1.75 0.82,-2.48 0.55,-0.73 1.7,-1.79 3.4,-3.12l6.05 7.34z"/>
  <polygon id="39" class="fil3 str0" points="44.37,355.79 49.23,355.79 49.23,329.87 59.46,329.87 59.46,325.51 34.18,325.51 34.18,329.87 44.37,329.87 "/>
  <path id="40" class="fil3 str0" d="M90.13 355.79l-9.08 -12.48c3.62,-1.42 5.82,-4.54 5.82,-8.53 0,-5.46 -4.17,-9.27 -10.27,-9.27l-11.06 0 0 30.28 4.86 0 0 -11.7 5.55 0 8.63 11.7 5.55 0zm-19.73 -25.96l6.1 0c3.35,0 5.37,2.01 5.37,5 0,2.93 -2.02,4.95 -5.37,4.95l-6.1 0 0 -9.95z"/>
  <path id="41" class="fil3 str0" d="M116.35 355.79l5.23 0 -13.35 -30.78 -1.65 0 -13.35 30.78 5.18 0 2.16 -5.05 13.62 0 2.16 5.05zm-3.9 -9.22l-10.14 0 5.09 -12.52 5.05 12.52z"/>
  <polygon id="42" class="fil3 str0" points="127.93,355.79 132.79,355.79 132.79,325.51 127.93,325.51 "/>
  <polygon id="43" class="fil3 str0" points="162.04,325.51 162.04,345.93 143.65,325.01 141.95,325.01 141.95,355.79 146.81,355.79 146.81,335.28 165.25,356.29 166.9,356.29 166.9,325.51 "/>
  <polygon id="44" class="fil3 str0" points="176.1,355.79 180.97,355.79 180.97,325.51 176.1,325.51 "/>
  <polygon id="45" class="fil3 str0" points="210.21,325.51 210.21,345.93 191.82,325.01 190.12,325.01 190.12,355.79 194.98,355.79 194.98,335.28 213.42,356.29 215.08,356.29 215.08,325.51 "/>
  <path id="46" class="fil3 str0" d="M222.44 340.65c-0.14,8.67 7.11,15.78 15.96,15.64 6.1,0 11.43,-3.16 14.13,-7.98l0 -8.53 -14.17 0 0 4.31 9.31 0 0 3.26c-1.88,2.89 -5.05,4.59 -9.04,4.59 -6.51,0 -11.14,-4.87 -11.14,-11.33 0,-6.38 4.49,-11.15 10.87,-11.15 3.76,0 6.79,1.61 9.03,4.77l3.54 -2.89c-2.89,-4.04 -7.25,-6.33 -12.53,-6.33 -8.76,-0.14 -16.14,6.97 -15.96,15.64z"/>
  <path id="47" class="fil3 str0" d="M290.01 355.79l5.23 0 -13.35 -30.78 -1.65 0 -13.35 30.78 5.18 0 2.16 -5.05 13.62 0 2.16 5.05zm-3.9 -9.22l-10.14 0 5.09 -12.52 5.05 12.52z"/>
  <path id="48" class="fil3 str0" d="M299.03 340.65c-0.19,8.67 7.29,15.78 15.91,15.64 5.64,0 10.41,-2.7 12.98,-6.97l-3.67 -2.71c-2.15,3.35 -5.27,5.23 -9.26,5.23 -6.19,0 -10.92,-4.77 -10.92,-11.19 0,-6.42 4.73,-11.19 10.92,-11.19 3.99,0 7.11,1.88 9.26,5.23l3.67 -2.71c-2.61,-4.26 -7.43,-6.97 -12.98,-6.97 -8.62,-0.14 -16.1,6.97 -15.91,15.64z"/>
  <path id="49" class="fil3 str0" d="M355.15 355.79l5.23 0 -13.35 -30.78 -1.65 0 -13.35 30.78 5.19 0 2.15 -5.05 13.63 0 2.15 5.05zm-3.9 -9.22l-10.13 0 5.09 -12.52 5.04 12.52z"/>
  <path id="50" class="fil3 str0" d="M366.74 355.79l9.49 0c9.86,0 16.47,-6.38 16.47,-15.18 0,-8.95 -6.56,-15.1 -16.47,-15.1l-9.49 0 0 30.28zm4.86 -4.36l0 -21.51 4.59 0c7.06,0 11.51,4.26 11.51,10.69 0,6.33 -4.5,10.82 -11.51,10.82l-4.59 0z"/>
  <polygon id="51" class="fil3 str0" points="400.02,355.79 420.48,355.79 420.48,351.43 404.88,351.43 404.88,341.84 416.21,341.84 416.21,337.62 404.88,337.62 404.88,329.87 419.93,329.87 419.93,325.51 400.02,325.51 "/>
  <polygon id="52" class="fil3 str0" points="454.77,325.01 442.07,341.94 429.36,325.01 427.66,325.01 427.66,355.79 432.52,355.79 432.52,336.75 441.24,348.17 442.89,348.17 451.56,336.8 451.56,355.79 456.42,355.79 456.42,325.01 "/>
  <polygon id="53" class="fil3 str0" points="488.88,325.51 483.51,325.51 475.99,338.68 468.51,325.51 463.1,325.51 473.56,343.59 473.56,355.79 478.42,355.79 478.42,343.59 "/>
  <polygon class="fil0" points="61.62,97.56 79.18,97.56 79.18,27.58 106.76,27.58 106.76,11.71 34.18,11.71 34.18,27.58 61.62,27.58 "/>
  <path id="1" class="fil0" d="M176.35 57.62c0,-15.61 -9.37,-25.88 -23.94,-25.88 -7.15,0 -13.39,2.6 -17.69,6.89l0 -38.63 -17.56 0 0 97.56 17.56 0 0 -37.47c0,-7.41 5.08,-12.48 12.23,-12.48 7.16,0 11.97,5.07 11.97,12.48l0 37.47 17.43 0 0 -39.94z"/>
  <path id="2" class="fil0" d="M252.44 71.28c0.78,-3.25 1.17,-6.5 1.17,-9.62 0,-16.78 -12.48,-29.92 -30.3,-29.92 -18.61,-0.39 -34.08,15.09 -33.69,33.69 -0.39,18.6 15.34,34.08 35.25,33.69 9.49,0 18.08,-3.25 25.75,-9.63l-7.28 -11.97c-5.6,4.3 -11.58,6.51 -17.95,6.51 -9.37,0 -16,-4.55 -18.08,-12.75l45.13 0zm-45.13 -12.36c1.95,-7.93 7.93,-13 15.35,-13 7.67,0 13.78,5.07 13.91,13l-29.26 0z"/>
  <path class="fil0" d="M288.42 97.12l18.55 0 0 -32 15.52 0c18.95,0 32.69,-12.09 32.69,-29.4 0,-17.44 -13.74,-29.26 -32.69,-29.26l-34.07 0 0 90.66zm18.55 -48.21l0 -26.1 15.52 0c8.38,0 13.73,5.22 13.73,12.91 0,7.83 -5.08,13.19 -13.73,13.19l-15.52 0z"/>
  <path id="1" class="fil0" d="M429.63 69.37c0.83,-3.43 1.24,-6.86 1.24,-10.16 0,-17.72 -13.19,-31.59 -32.01,-31.59 -19.64,-0.42 -35.99,15.93 -35.58,35.57 -0.41,19.65 16.21,35.99 37.23,35.58 10.03,0 19.09,-3.43 27.2,-10.16l-7.69 -12.64c-5.91,4.53 -12.23,6.87 -18.96,6.87 -9.89,0 -16.9,-4.81 -19.09,-13.47l47.66 0zm-47.66 -13.04c2.06,-8.38 8.38,-13.74 16.2,-13.74 8.11,0 14.57,5.36 14.7,13.74l-30.9 0z"/>
  <path id="2" class="fil0" d="M488.97 81.6c-4.81,0.41 -7.69,0.55 -8.79,0.55 -8.79,0 -12.64,-2.89 -12.64,-10.58l0 -26.78 19.23 0 0 -15.66 -19.23 0 0 -17.17 -18.54 0 0 17.17 -10.72 0 0 15.66 10.72 0 0 28.43c0,17.03 10.03,25.55 27.2,25.55 4.12,0 8.38,-0.55 12.77,-1.65l0 -15.52z"/>
 </g>
</svg>
