<?xml version="1.0" encoding="UTF-8"?>
<!DOCTYPE svg PUBLIC "-//W3C//DTD SVG 1.1//EN" "http://www.w3.org/Graphics/SVG/1.1/DTD/svg11.dtd">
<!-- Creator: CorelDRAW 2018 (64-Bit) -->
<svg xmlns="http://www.w3.org/2000/svg" xml:space="preserve" width="641px" height="136px" version="1.1" style="shape-rendering:geometricPrecision; text-rendering:geometricPrecision; image-rendering:optimizeQuality; fill-rule:evenodd; clip-rule:evenodd"
viewBox="0 0 641 136.09"
 xmlns:xlink="http://www.w3.org/1999/xlink">
 <defs>
  <style type="text/css">
   <![CDATA[
    .str0 {stroke:#FF90AA;stroke-width:0.28;stroke-miterlimit:22.9256}
    .fil3 {fill:none;fill-rule:nonzero}
    .fil2 {fill:#FF90AA;fill-rule:nonzero}
    .fil0 {fill:white;fill-rule:nonzero}
    .fil1 {fill:black;fill-opacity:0.501961}
   ]]>
  </style>
 </defs>
 <g id="Layer_x0020_1">
  <metadata id="CorelCorpID_0Corel-Layer"/>
  <polygon class="fil0" points="20.09,72.26 32.94,72.26 32.94,21.04 53.12,21.04 53.12,9.42 0,9.42 0,21.04 20.09,21.04 "/>
  <path id="1" class="fil0" d="M104.06 43.03c0,-11.42 -6.86,-18.94 -17.52,-18.94 -5.24,0 -9.81,1.9 -12.95,5.04l0 -28.27 -12.85 0 0 71.4 12.85 0 0 -27.42c0,-5.43 3.71,-9.14 8.95,-9.14 5.24,0 8.76,3.71 8.76,9.14l0 27.42 12.76 0 0 -29.23z"/>
  <path id="2" class="fil0" d="M159.75 53.03c0.57,-2.38 0.86,-4.76 0.86,-7.05 0,-12.28 -9.14,-21.89 -22.19,-21.89 -13.61,-0.29 -24.94,11.04 -24.65,24.65 -0.29,13.62 11.23,24.95 25.8,24.66 6.95,0 13.23,-2.38 18.85,-7.04l-5.33 -8.76c-4.1,3.14 -8.48,4.76 -13.14,4.76 -6.86,0 -11.71,-3.33 -13.24,-9.33l33.04 0zm-33.04 -9.05c1.43,-5.8 5.81,-9.52 11.24,-9.52 5.62,0 10.09,3.72 10.19,9.52l-21.43 0z"/>
  <path id="3" class="fil0" d="M191.45 72.26l12.85 0 0 -22.18 10.76 0c13.14,0 22.66,-8.38 22.66,-20.38 0,-12.09 -9.52,-20.28 -22.66,-20.28l-23.61 0 0 62.84zm12.85 -33.42l0 -18.09 10.76 0c5.81,0 9.52,3.62 9.52,8.95 0,5.43 -3.52,9.14 -9.52,9.14l-10.76 0z"/>
  <path id="4" class="fil0" d="M289.32 53.03c0.57,-2.38 0.86,-4.76 0.86,-7.05 0,-12.28 -9.14,-21.89 -22.19,-21.89 -13.61,-0.29 -24.94,11.04 -24.65,24.65 -0.29,13.62 11.23,24.95 25.8,24.66 6.95,0 13.23,-2.38 18.85,-7.04l-5.33 -8.76c-4.1,3.14 -8.48,4.76 -13.14,4.76 -6.86,0 -11.71,-3.33 -13.24,-9.33l33.04 0zm-33.04 -9.05c1.43,-5.8 5.81,-9.52 11.24,-9.52 5.62,0 10.09,3.72 10.19,9.52l-21.43 0z"/>
  <path id="5" class="fil0" d="M330.45 61.5c-3.33,0.29 -5.33,0.38 -6.1,0.38 -6.09,0 -8.75,-2 -8.75,-7.33l0 -18.56 13.32 0 0 -10.86 -13.32 0 0 -11.9 -12.86 0 0 11.9 -7.42 0 0 10.86 7.42 0 0 19.7c0,11.81 6.95,17.71 18.85,17.71 2.86,0 5.81,-0.38 8.86,-1.14l0 -10.76z"/>
  <path id="6" class="fil0" d="M356.25 59.5c4.85,8.47 13.61,13.9 24.27,13.9 12.57,0 22,-7.33 22,-18.85 0,-8.47 -4.96,-13.71 -15.52,-18.37l-7.14 -3.14c-5.33,-2.38 -7.33,-3.91 -7.33,-7.24 0,-3.9 3.33,-6.09 7.8,-6.09 4.76,0 8.76,2.38 12,7.23l8.76 -6.76c-3.91,-7.23 -11.14,-11.9 -20.76,-11.9 -11.9,0 -20.85,7.05 -20.85,17.81 0,8.37 5.62,13.8 15.24,18.08l6.76 3.05c5.99,2.76 7.99,4.09 7.99,7.81 0,4.28 -3.33,6.95 -8.95,6.95 -6.85,0 -11.33,-3.53 -15.42,-9.14l-8.85 6.66z"/>
  <path id="7" class="fil0" d="M442.79 61.5c-3.34,0.29 -5.34,0.38 -6.1,0.38 -6.09,0 -8.76,-2 -8.76,-7.33l0 -18.56 13.33 0 0 -10.86 -13.33 0 0 -11.9 -12.85 0 0 11.9 -7.42 0 0 10.86 7.42 0 0 19.7c0,11.81 6.95,17.71 18.85,17.71 2.86,0 5.81,-0.38 8.86,-1.14l0 -10.76z"/>
  <path id="8" class="fil0" d="M451.64 51.5c0,13.14 9.23,21.9 21.8,21.9 12.28,0 21.61,-8.76 21.61,-21.9l0 -26.37 -12.85 0 0 27.42c0,5.43 -3.81,9.05 -8.76,9.05 -5.23,0 -8.95,-3.62 -8.95,-9.05l0 -27.42 -12.85 0 0 26.37z"/>
  <path id="9" class="fil0" d="M541.61 0.86l0 28.84c-3.43,-3.71 -8.1,-5.61 -14.09,-5.61 -13.14,0 -22.85,10.47 -22.85,24.65 0,14.19 9.71,24.66 22.85,24.66 6.47,0 11.99,-2.47 15.13,-6.95l0 5.81 11.81 0 0 -71.4 -12.85 0zm0.19 47.88c0,8.48 -5.43,12.95 -11.9,12.95 -6.95,0 -12.19,-5.14 -12.19,-13.04 0,-7.71 5.33,-12.95 12.19,-12.95 6.47,0 11.9,4.67 11.9,13.04z"/>
  <path id="10" class="fil0" d="M567.22 72.26l12.85 0 0 -47.13 -12.85 0 0 47.13zm-1.81 -64.26c0,4.47 3.61,7.9 8.18,7.9 4.57,0 8.29,-3.43 8.29,-7.9 0,-4.57 -3.72,-8 -8.29,-8 -4.57,0 -8.18,3.43 -8.18,8z"/>
  <path id="11" class="fil0" d="M590.16 48.65c-0.29,13.42 11.33,24.94 25.13,24.66 13.81,0.28 25.71,-11.24 25.42,-24.66 0.29,-13.43 -11.52,-24.75 -25.32,-24.56 -13.81,-0.29 -25.52,11.13 -25.23,24.56zm37.41 0.09c0,7.33 -5.23,12.76 -12.18,12.76 -7.14,0 -12.19,-5.43 -12.19,-12.76 0,-7.52 5.05,-12.94 12.19,-12.94 6.95,0 12.18,5.61 12.18,12.94z"/>
  <polygon class="fil1" points="6.23,89.44 641,89.44 641,136.09 6.23,136.09 "/>
  <path class="fil2" d="M18.53 123.06l6.67 0c6.93,0 11.57,-4.48 11.57,-10.66 0,-6.29 -4.61,-10.6 -11.57,-10.6l-6.67 0 0 21.26zm3.41 -3.06l0 -15.11 3.23 0c4.96,0 8.08,2.99 8.08,7.51 0,4.44 -3.15,7.6 -8.08,7.6l-3.23 0z"/>
  <path id="1" class="fil2" d="M40.62 112.43c-0.13,6.09 5.06,11.08 11.15,10.99 6.02,0.09 11.31,-4.9 11.18,-10.99 0.13,-6.09 -5.16,-11.09 -11.18,-10.99 -6.06,-0.1 -11.25,4.9 -11.15,10.99zm18.82 -0.03c0,4.54 -3.29,7.89 -7.64,7.89 -4.41,0 -7.64,-3.35 -7.64,-7.89 0,-4.48 3.23,-7.83 7.64,-7.83 4.35,0 7.64,3.38 7.64,7.83z"/>
  <path id="2" class="fil2" d="M66.83 112.43c-0.09,6.09 5,11.08 11.22,10.99 4.28,0 8.02,-2.23 9.92,-5.61l0 -5.99 -9.96 0 0 3.02 6.55 0 0 2.29c-1.33,2.03 -3.55,3.22 -6.35,3.22 -4.58,0 -7.83,-3.41 -7.83,-7.95 0,-4.48 3.16,-7.83 7.63,-7.83 2.65,0 4.77,1.12 6.35,3.35l2.48 -2.03c-2.03,-2.84 -5.09,-4.45 -8.79,-4.45 -6.16,-0.1 -11.34,4.9 -11.22,10.99z"/>
  <path id="3" class="fil2" d="M100.34 112.43c-0.09,6.09 5,11.08 11.22,10.99 4.28,0 8.02,-2.23 9.92,-5.61l0 -5.99 -9.96 0 0 3.02 6.55 0 0 2.29c-1.33,2.03 -3.55,3.22 -6.35,3.22 -4.58,0 -7.83,-3.41 -7.83,-7.95 0,-4.48 3.16,-7.83 7.63,-7.83 2.65,0 4.77,1.12 6.35,3.35l2.48 -2.03c-2.03,-2.84 -5.09,-4.45 -8.79,-4.45 -6.16,-0.1 -11.35,4.9 -11.22,10.99z"/>
  <path id="4" class="fil2" d="M144.02 123.06l-6.38 -8.76c2.55,-1 4.09,-3.19 4.09,-6 0,-3.83 -2.93,-6.5 -7.21,-6.5l-7.77 0 0 21.26 3.42 0 0 -8.22 3.9 0 6.05 8.22 3.9 0zm-13.85 -18.24l4.28 0c2.35,0 3.77,1.42 3.77,3.52 0,2.06 -1.42,3.48 -3.77,3.48l-4.28 0 0 -7z"/>
  <path id="5" class="fil2" d="M146.39 112.43c-0.12,6.09 5.06,11.08 11.15,10.99 6.03,0.09 11.31,-4.9 11.18,-10.99 0.13,-6.09 -5.15,-11.09 -11.18,-10.99 -6.06,-0.1 -11.24,4.9 -11.15,10.99zm18.82 -0.03c0,4.54 -3.29,7.89 -7.64,7.89 -4.41,0 -7.63,-3.35 -7.63,-7.89 0,-4.48 3.22,-7.83 7.63,-7.83 4.35,0 7.64,3.38 7.64,7.83z"/>
  <path id="6" class="fil2" d="M172.61 112.43c-0.13,6.09 5.06,11.08 11.15,10.99 6.02,0.09 11.31,-4.9 11.18,-10.99 0.13,-6.09 -5.16,-11.09 -11.18,-10.99 -6.06,-0.1 -11.25,4.9 -11.15,10.99zm18.82 -0.03c0,4.54 -3.29,7.89 -7.64,7.89 -4.41,0 -7.64,-3.35 -7.64,-7.89 0,-4.48 3.23,-7.83 7.64,-7.83 4.35,0 7.64,3.38 7.64,7.83z"/>
  <polygon id="7" class="fil2" points="219.16,101.44 210.23,113.33 201.3,101.44 200.11,101.44 200.11,123.06 203.53,123.06 203.53,109.69 209.65,117.71 210.81,117.71 216.9,109.72 216.9,123.06 220.32,123.06 220.32,101.44 "/>
  <polygon id="8" class="fil2" points="226.75,123.06 230.16,123.06 230.16,101.8 226.75,101.8 "/>
  <polygon id="9" class="fil2" points="250.71,101.8 250.71,116.13 237.79,101.44 236.59,101.44 236.59,123.06 240.01,123.06 240.01,108.66 252.96,123.42 254.12,123.42 254.12,101.8 "/>
  <path id="10" class="fil2" d="M259.3 112.43c-0.1,6.09 4.99,11.08 11.21,10.99 4.28,0 8.02,-2.23 9.92,-5.61l0 -5.99 -9.95 0 0 3.02 6.54 0 0 2.29c-1.32,2.03 -3.55,3.22 -6.35,3.22 -4.58,0 -7.83,-3.41 -7.83,-7.95 0,-4.48 3.16,-7.83 7.64,-7.83 2.64,0 4.76,1.12 6.34,3.35l2.48 -2.03c-2.02,-2.84 -5.09,-4.45 -8.79,-4.45 -6.16,-0.1 -11.34,4.9 -11.21,10.99z"/>
  <path id="11" class="fil2" d="M307.79 113.62l-2.71 -1.87c-0.48,0.68 -0.8,1.19 -1.03,1.55 -1.06,1.58 -1.71,2.54 -2,2.93l-3.83 -4.61c2.54,-1.96 3.64,-3.7 3.64,-5.67 0,-2.67 -2.06,-4.51 -4.99,-4.51 -3.07,0 -5.1,1.93 -5.1,4.87 0,1.57 0.65,3.06 2.07,4.86 -1.68,1.29 -2.87,2.42 -3.55,3.38 -0.67,0.97 -1,2.03 -1,3.16 0,3.32 2.81,5.71 6.74,5.71 2.35,0 4.22,-0.81 5.99,-2.36l1.64 2 4.03 0 -3.54 -4.28c0.58,-0.71 1.48,-1.97 2.7,-3.81l0.94 -1.35zm-12.86 -7.28c0,-1.26 0.71,-1.93 1.9,-1.93 1.16,0 1.87,0.67 1.87,1.8 0,1.13 -0.61,1.96 -2.25,3.25 -1.07,-1.38 -1.52,-2.19 -1.52,-3.12zm5.06 12.27c-1.22,1.16 -2.48,1.74 -3.8,1.74 -2.03,0 -3.42,-1.25 -3.42,-2.96 0,-0.64 0.2,-1.22 0.58,-1.74 0.39,-0.52 1.2,-1.26 2.39,-2.19l4.25 5.15z"/>
  <polygon id="12" class="fil2" points="320.78,123.06 324.19,123.06 324.19,104.86 331.38,104.86 331.38,101.8 313.62,101.8 313.62,104.86 320.78,104.86 "/>
  <path id="13" class="fil2" d="M352.92 123.06l-6.38 -8.76c2.55,-1 4.09,-3.19 4.09,-6 0,-3.83 -2.93,-6.5 -7.22,-6.5l-7.76 0 0 21.26 3.41 0 0 -8.22 3.9 0 6.06 8.22 3.9 0zm-13.86 -18.24l4.29 0c2.35,0 3.77,1.42 3.77,3.52 0,2.06 -1.42,3.48 -3.77,3.48l-4.29 0 0 -7z"/>
  <path id="14" class="fil2" d="M371.34 123.06l3.67 0 -9.38 -21.62 -1.16 0 -9.37 21.62 3.64 0 1.51 -3.54 9.57 0 1.52 3.54zm-2.74 -6.48l-7.12 0 3.57 -8.79 3.55 8.79z"/>
  <polygon id="15" class="fil2" points="379.48,123.06 382.89,123.06 382.89,101.8 379.48,101.8 "/>
  <polygon id="16" class="fil2" points="403.44,101.8 403.44,116.13 390.51,101.44 389.32,101.44 389.32,123.06 392.74,123.06 392.74,108.66 405.69,123.42 406.85,123.42 406.85,101.8 "/>
  <polygon id="17" class="fil2" points="413.31,123.06 416.73,123.06 416.73,101.8 413.31,101.8 "/>
  <polygon id="18" class="fil2" points="437.27,101.8 437.27,116.13 424.35,101.44 423.16,101.44 423.16,123.06 426.58,123.06 426.58,108.66 439.53,123.42 440.69,123.42 440.69,101.8 "/>
  <path id="19" class="fil2" d="M445.86 112.43c-0.09,6.09 5,11.08 11.22,10.99 4.28,0 8.02,-2.23 9.92,-5.61l0 -5.99 -9.96 0 0 3.02 6.55 0 0 2.29c-1.33,2.03 -3.55,3.22 -6.35,3.22 -4.58,0 -7.83,-3.41 -7.83,-7.95 0,-4.48 3.16,-7.83 7.63,-7.83 2.65,0 4.77,1.12 6.35,3.35l2.48 -2.03c-2.03,-2.84 -5.09,-4.45 -8.79,-4.45 -6.16,-0.1 -11.35,4.9 -11.22,10.99z"/>
  <path id="20" class="fil2" d="M493.33 123.06l3.67 0 -9.38 -21.62 -1.16 0 -9.37 21.62 3.64 0 1.51 -3.54 9.57 0 1.52 3.54zm-2.74 -6.48l-7.12 0 3.57 -8.79 3.55 8.79z"/>
  <path id="21" class="fil2" d="M499.66 112.43c-0.13,6.09 5.12,11.08 11.18,10.99 3.96,0 7.31,-1.91 9.12,-4.9l-2.58 -1.9c-1.51,2.35 -3.7,3.67 -6.51,3.67 -4.35,0 -7.67,-3.35 -7.67,-7.86 0,-4.51 3.32,-7.86 7.67,-7.86 2.81,0 5,1.32 6.51,3.67l2.58 -1.9c-1.84,-3 -5.22,-4.9 -9.12,-4.9 -6.06,-0.1 -11.31,4.9 -11.18,10.99z"/>
  <path id="22" class="fil2" d="M539.09 123.06l3.67 0 -9.38 -21.62 -1.16 0 -9.37 21.62 3.64 0 1.51 -3.54 9.57 0 1.52 3.54zm-2.74 -6.48l-7.12 0 3.57 -8.79 3.55 8.79z"/>
  <path id="23" class="fil2" d="M547.22 123.06l6.67 0c6.93,0 11.57,-4.48 11.57,-10.66 0,-6.29 -4.61,-10.6 -11.57,-10.6l-6.67 0 0 21.26zm3.42 -3.06l0 -15.11 3.22 0c4.96,0 8.09,2.99 8.09,7.51 0,4.44 -3.16,7.6 -8.09,7.6l-3.22 0z"/>
  <polygon id="24" class="fil2" points="570.6,123.06 584.97,123.06 584.97,120 574.02,120 574.02,113.27 581.98,113.27 581.98,110.3 574.02,110.3 574.02,104.86 584.59,104.86 584.59,101.8 570.6,101.8 "/>
  <polygon id="25" class="fil2" points="609.06,101.44 600.14,113.33 591.21,101.44 590.02,101.44 590.02,123.06 593.44,123.06 593.44,109.69 599.56,117.71 600.72,117.71 606.81,109.72 606.81,123.06 610.22,123.06 610.22,101.44 "/>
  <polygon id="26" class="fil2" points="633.02,101.8 629.25,101.8 623.97,111.04 618.72,101.8 614.91,101.8 622.26,114.49 622.26,123.06 625.68,123.06 625.68,114.49 "/>
  <path id="27" class="fil3 str0" d="M18.53 123.06l6.67 0c6.93,0 11.57,-4.48 11.57,-10.66 0,-6.29 -4.61,-10.6 -11.57,-10.6l-6.67 0 0 21.26zm3.41 -3.06l0 -15.11 3.23 0c4.96,0 8.08,2.99 8.08,7.51 0,4.44 -3.15,7.6 -8.08,7.6l-3.23 0z"/>
  <path id="28" class="fil3 str0" d="M40.62 112.43c-0.13,6.09 5.06,11.08 11.15,10.99 6.02,0.09 11.31,-4.9 11.18,-10.99 0.13,-6.09 -5.16,-11.09 -11.18,-10.99 -6.06,-0.1 -11.25,4.9 -11.15,10.99zm18.82 -0.03c0,4.54 -3.29,7.89 -7.64,7.89 -4.41,0 -7.64,-3.35 -7.64,-7.89 0,-4.48 3.23,-7.83 7.64,-7.83 4.35,0 7.64,3.38 7.64,7.83z"/>
  <path id="29" class="fil3 str0" d="M66.83 112.43c-0.09,6.09 5,11.08 11.22,10.99 4.28,0 8.02,-2.23 9.92,-5.61l0 -5.99 -9.96 0 0 3.02 6.55 0 0 2.29c-1.33,2.03 -3.55,3.22 -6.35,3.22 -4.58,0 -7.83,-3.41 -7.83,-7.95 0,-4.48 3.16,-7.83 7.63,-7.83 2.65,0 4.77,1.12 6.35,3.35l2.48 -2.03c-2.03,-2.84 -5.09,-4.45 -8.79,-4.45 -6.16,-0.1 -11.34,4.9 -11.22,10.99z"/>
  <path id="30" class="fil3 str0" d="M100.34 112.43c-0.09,6.09 5,11.08 11.22,10.99 4.28,0 8.02,-2.23 9.92,-5.61l0 -5.99 -9.96 0 0 3.02 6.55 0 0 2.29c-1.33,2.03 -3.55,3.22 -6.35,3.22 -4.58,0 -7.83,-3.41 -7.83,-7.95 0,-4.48 3.16,-7.83 7.63,-7.83 2.65,0 4.77,1.12 6.35,3.35l2.48 -2.03c-2.03,-2.84 -5.09,-4.45 -8.79,-4.45 -6.16,-0.1 -11.35,4.9 -11.22,10.99z"/>
  <path id="31" class="fil3 str0" d="M144.02 123.06l-6.38 -8.76c2.55,-1 4.09,-3.19 4.09,-6 0,-3.83 -2.93,-6.5 -7.21,-6.5l-7.77 0 0 21.26 3.42 0 0 -8.22 3.9 0 6.05 8.22 3.9 0zm-13.85 -18.24l4.28 0c2.35,0 3.77,1.42 3.77,3.52 0,2.06 -1.42,3.48 -3.77,3.48l-4.28 0 0 -7z"/>
  <path id="32" class="fil3 str0" d="M146.39 112.43c-0.12,6.09 5.06,11.08 11.15,10.99 6.03,0.09 11.31,-4.9 11.18,-10.99 0.13,-6.09 -5.15,-11.09 -11.18,-10.99 -6.06,-0.1 -11.24,4.9 -11.15,10.99zm18.82 -0.03c0,4.54 -3.29,7.89 -7.64,7.89 -4.41,0 -7.63,-3.35 -7.63,-7.89 0,-4.48 3.22,-7.83 7.63,-7.83 4.35,0 7.64,3.38 7.64,7.83z"/>
  <path id="33" class="fil3 str0" d="M172.61 112.43c-0.13,6.09 5.06,11.08 11.15,10.99 6.02,0.09 11.31,-4.9 11.18,-10.99 0.13,-6.09 -5.16,-11.09 -11.18,-10.99 -6.06,-0.1 -11.25,4.9 -11.15,10.99zm18.82 -0.03c0,4.54 -3.29,7.89 -7.64,7.89 -4.41,0 -7.64,-3.35 -7.64,-7.89 0,-4.48 3.23,-7.83 7.64,-7.83 4.35,0 7.64,3.38 7.64,7.83z"/>
  <polygon id="34" class="fil3 str0" points="219.16,101.44 210.23,113.33 201.3,101.44 200.11,101.44 200.11,123.06 203.53,123.06 203.53,109.69 209.65,117.71 210.81,117.71 216.9,109.72 216.9,123.06 220.32,123.06 220.32,101.44 "/>
  <polygon id="35" class="fil3 str0" points="226.75,123.06 230.16,123.06 230.16,101.8 226.75,101.8 "/>
  <polygon id="36" class="fil3 str0" points="250.71,101.8 250.71,116.13 237.79,101.44 236.59,101.44 236.59,123.06 240.01,123.06 240.01,108.66 252.96,123.42 254.12,123.42 254.12,101.8 "/>
  <path id="37" class="fil3 str0" d="M259.3 112.43c-0.1,6.09 4.99,11.08 11.21,10.99 4.28,0 8.02,-2.23 9.92,-5.61l0 -5.99 -9.95 0 0 3.02 6.54 0 0 2.29c-1.32,2.03 -3.55,3.22 -6.35,3.22 -4.58,0 -7.83,-3.41 -7.83,-7.95 0,-4.48 3.16,-7.83 7.64,-7.83 2.64,0 4.76,1.12 6.34,3.35l2.48 -2.03c-2.02,-2.84 -5.09,-4.45 -8.79,-4.45 -6.16,-0.1 -11.34,4.9 -11.21,10.99z"/>
  <path id="38" class="fil3 str0" d="M307.79 113.62l-2.71 -1.87c-0.48,0.68 -0.8,1.19 -1.03,1.55 -1.06,1.58 -1.71,2.54 -2,2.93l-3.83 -4.61c2.54,-1.96 3.64,-3.7 3.64,-5.67 0,-2.67 -2.06,-4.51 -4.99,-4.51 -3.07,0 -5.1,1.93 -5.1,4.87 0,1.57 0.65,3.06 2.07,4.86 -1.68,1.29 -2.87,2.42 -3.55,3.38 -0.67,0.97 -1,2.03 -1,3.16 0,3.32 2.81,5.71 6.74,5.71 2.35,0 4.22,-0.81 5.99,-2.36l1.64 2 4.03 0 -3.54 -4.28c0.58,-0.71 1.48,-1.97 2.7,-3.81l0.94 -1.35zm-12.86 -7.28c0,-1.26 0.71,-1.93 1.9,-1.93 1.16,0 1.87,0.67 1.87,1.8 0,1.13 -0.61,1.96 -2.25,3.25 -1.07,-1.38 -1.52,-2.19 -1.52,-3.12zm5.06 12.27c-1.22,1.16 -2.48,1.74 -3.8,1.74 -2.03,0 -3.42,-1.25 -3.42,-2.96 0,-0.64 0.2,-1.22 0.58,-1.74 0.39,-0.52 1.2,-1.26 2.39,-2.19l4.25 5.15z"/>
  <polygon id="39" class="fil3 str0" points="320.78,123.06 324.19,123.06 324.19,104.86 331.38,104.86 331.38,101.8 313.62,101.8 313.62,104.86 320.78,104.86 "/>
  <path id="40" class="fil3 str0" d="M352.92 123.06l-6.38 -8.76c2.55,-1 4.09,-3.19 4.09,-6 0,-3.83 -2.93,-6.5 -7.22,-6.5l-7.76 0 0 21.26 3.41 0 0 -8.22 3.9 0 6.06 8.22 3.9 0zm-13.86 -18.24l4.29 0c2.35,0 3.77,1.42 3.77,3.52 0,2.06 -1.42,3.48 -3.77,3.48l-4.29 0 0 -7z"/>
  <path id="41" class="fil3 str0" d="M371.34 123.06l3.67 0 -9.38 -21.62 -1.16 0 -9.37 21.62 3.64 0 1.51 -3.54 9.57 0 1.52 3.54zm-2.74 -6.48l-7.12 0 3.57 -8.79 3.55 8.79z"/>
  <polygon id="42" class="fil3 str0" points="379.48,123.06 382.89,123.06 382.89,101.8 379.48,101.8 "/>
  <polygon id="43" class="fil3 str0" points="403.44,101.8 403.44,116.13 390.51,101.44 389.32,101.44 389.32,123.06 392.74,123.06 392.74,108.66 405.69,123.42 406.85,123.42 406.85,101.8 "/>
  <polygon id="44" class="fil3 str0" points="413.31,123.06 416.73,123.06 416.73,101.8 413.31,101.8 "/>
  <polygon id="45" class="fil3 str0" points="437.27,101.8 437.27,116.13 424.35,101.44 423.16,101.44 423.16,123.06 426.58,123.06 426.58,108.66 439.53,123.42 440.69,123.42 440.69,101.8 "/>
  <path id="46" class="fil3 str0" d="M445.86 112.43c-0.09,6.09 5,11.08 11.22,10.99 4.28,0 8.02,-2.23 9.92,-5.61l0 -5.99 -9.96 0 0 3.02 6.55 0 0 2.29c-1.33,2.03 -3.55,3.22 -6.35,3.22 -4.58,0 -7.83,-3.41 -7.83,-7.95 0,-4.48 3.16,-7.83 7.63,-7.83 2.65,0 4.77,1.12 6.35,3.35l2.48 -2.03c-2.03,-2.84 -5.09,-4.45 -8.79,-4.45 -6.16,-0.1 -11.35,4.9 -11.22,10.99z"/>
  <path id="47" class="fil3 str0" d="M493.33 123.06l3.67 0 -9.38 -21.62 -1.16 0 -9.37 21.62 3.64 0 1.51 -3.54 9.57 0 1.52 3.54zm-2.74 -6.48l-7.12 0 3.57 -8.79 3.55 8.79z"/>
  <path id="48" class="fil3 str0" d="M499.66 112.43c-0.13,6.09 5.12,11.08 11.18,10.99 3.96,0 7.31,-1.91 9.12,-4.9l-2.58 -1.9c-1.51,2.35 -3.7,3.67 -6.51,3.67 -4.35,0 -7.67,-3.35 -7.67,-7.86 0,-4.51 3.32,-7.86 7.67,-7.86 2.81,0 5,1.32 6.51,3.67l2.58 -1.9c-1.84,-3 -5.22,-4.9 -9.12,-4.9 -6.06,-0.1 -11.31,4.9 -11.18,10.99z"/>
  <path id="49" class="fil3 str0" d="M539.09 123.06l3.67 0 -9.38 -21.62 -1.16 0 -9.37 21.62 3.64 0 1.51 -3.54 9.57 0 1.52 3.54zm-2.74 -6.48l-7.12 0 3.57 -8.79 3.55 8.79z"/>
  <path id="50" class="fil3 str0" d="M547.22 123.06l6.67 0c6.93,0 11.57,-4.48 11.57,-10.66 0,-6.29 -4.61,-10.6 -11.57,-10.6l-6.67 0 0 21.26zm3.42 -3.06l0 -15.11 3.22 0c4.96,0 8.09,2.99 8.09,7.51 0,4.44 -3.16,7.6 -8.09,7.6l-3.22 0z"/>
  <polygon id="51" class="fil3 str0" points="570.6,123.06 584.97,123.06 584.97,120 574.02,120 574.02,113.27 581.98,113.27 581.98,110.3 574.02,110.3 574.02,104.86 584.59,104.86 584.59,101.8 570.6,101.8 "/>
  <polygon id="52" class="fil3 str0" points="609.06,101.44 600.14,113.33 591.21,101.44 590.02,101.44 590.02,123.06 593.44,123.06 593.44,109.69 599.56,117.71 600.72,117.71 606.81,109.72 606.81,123.06 610.22,123.06 610.22,101.44 "/>
  <polygon id="53" class="fil3 str0" points="633.02,101.8 629.25,101.8 623.97,111.04 618.72,101.8 614.91,101.8 622.26,114.49 622.26,123.06 625.68,123.06 625.68,114.49 "/>
 </g>
</svg>
