<svg xmlns="http://www.w3.org/2000/svg" xml:space="preserve" width="999px" height="519px" version="1.1" style="shape-rendering:geometricPrecision; text-rendering:geometricPrecision; image-rendering:optimizeQuality; fill-rule:evenodd; clip-rule:evenodd"
viewBox="0 0 1188.84 617.22"
 xmlns:xlink="http://www.w3.org/1999/xlink">

 <g id="Layer_x0020_1">
  <metadata id="CorelCorpID_0Corel-Layer"/>
  <path fill="#FF90AA" stroke="#000" stroke-linecap="round" stroke-miterlimit="10" stroke-width="2" paint-order="stroke" d="M528.69 561.94c-21.71,0 -45.46,-1.82 -45.46,-21.82 0,-39.47 93.33,-96.04 123.66,-110.93 18.78,-9.22 28.1,-15.84 52.16,-26.05 12.53,-5.32 16.02,-10.78 34.71,4.65 28.06,23.15 15.15,63.08 -7.26,86.45 -5.13,5.35 -12.73,13.55 -18.5,17.88l-22.55 15.63c-30.04,18.56 -68.7,34.19 -116.76,34.19zm156.82 -561.94l36.52 0c14.21,1.47 27.62,4.88 39.49,10.87 4.83,2.43 7.38,4.6 11.96,8.04 12.22,9.17 26.18,33.21 26.18,53.83 0,34.73 -4.22,53.42 -24.37,81.11 -6.21,8.54 -12.5,16.62 -19.75,23.89l-52.74 54.56c-34.01,37.77 -17.38,40.72 -22.76,57.22 -8.53,26.2 -48.29,-10.3 7.32,-65.39l52.75 -50.91c4.84,-4.78 5.09,-6.11 9.1,-10.9 15.12,-18.01 24.9,-24.99 33.31,-50.34 5.51,-16.59 7.76,-34.83 3.74,-53.11 -3.2,-14.55 -13.02,-30.54 -25.95,-37.7 -14.78,-8.2 -34.9,-10.03 -51.76,-11.99 -8,-0.93 -10.75,1.55 -17.94,1.79 -24.32,0.83 -49.87,4.65 -72.09,13.39 -6.07,2.38 -9.39,3.62 -15.98,5.84 -33.81,11.41 -66.73,31.94 -94.35,52.96l-23.62 18.2c-18.48,16.81 -36.49,33.99 -50.44,55.04 -25.13,37.91 -44.3,74.72 -16.05,117.88 7.66,11.7 17.45,21.58 28.74,29.46 7.6,5.31 15,9.68 23.31,14.88 11.93,7.46 27.73,13.58 41.08,18.93 5.19,2.09 8.65,2.72 13.62,4.57 29.54,11.02 59.9,19.17 90.42,27.78 10.1,2.85 21.1,5.26 30.09,8.11l29.81 10.07 87.38 -37.87c6.34,-4.81 -1.4,-2.42 4.99,-4.4 13.08,-4.05 3.05,32.37 3.05,45.18 4.94,-1.79 2.75,0.5 6.16,-6.56l10.76 -25.61c16.83,-41.98 30.36,-39.06 30.36,8.53 4.68,-3.43 9.94,-14.55 16.37,-14.55 11.56,0 15.15,36.38 38.19,36.38 22.01,0 39.03,-25.36 42.91,-44.38 1.83,-8.92 2.32,-13.48 9.83,-17.46 5.32,7.96 2.38,12.68 -0.05,21.78 -1.54,5.76 -1.31,7.25 -1.86,14.61 -1.04,14.03 0.67,15.82 3.72,27.26 11.33,-0.25 16.85,-7.44 22.18,-14.19 8.13,-10.33 14.46,-22.34 20.29,-34.27 4.91,-10.03 14.87,-28.49 15.73,-38.83 -15.89,0.36 -34.82,4.31 -49.56,6.82 -9.53,1.62 -27.32,2.87 -35.27,8.54 -6.22,4.45 -0.96,2.02 -0.94,2.77 0.25,9.01 2.81,-5.22 0.29,1.88 -8.21,-0.69 -7.27,-4.17 -7.27,-10.91 22.3,-11.8 71.63,-18.19 98.2,-18.19l22.39 -59.45c16.95,-41.58 8.32,-56.57 24.9,-56.94 1.22,5.23 2.89,9.2 2.5,13.64 -0.5,5.8 -1.88,9.74 -3.75,14.21 -9.97,23.89 -12.62,73.93 -18.76,86.72 9.91,0 12.94,-1.33 20.05,-1.77 12.29,-0.76 11.26,3.37 12.96,-8.87 3.17,-22.94 9.18,-47.03 16.3,-69.18 3.06,-9.55 6.98,-22.02 19.8,-22.02 13.74,0 -3.48,42.04 -3.64,49.1 -5.79,-4.24 -1.48,-3.03 -7.27,-7.27 -1.61,19.27 -14.55,37.9 -14.55,58.19 36.21,0 77.27,-5.52 113.17,-0.41 9.97,1.42 9.39,-2.42 14.13,4.05 -4.79,2.38 1.5,1.82 -5.46,1.82 -11.78,0 -26.55,1.37 -37.79,-0.39 -16.36,-2.56 -35.55,0.39 -53.13,0.39 -18.09,-0.01 -32.34,-2.63 -34.57,7.27 -6.17,27.39 -9.08,59.27 -9.08,87.29 0.28,-0.32 0.69,-0.76 0.84,-0.97 0.16,-0.21 0.65,-0.72 0.83,-0.99l20.88 -33.68c4.57,-6.28 7.97,-10.46 13.34,-15.76 21.39,-21.1 27.7,-7.62 32.15,17.92 5.29,30.32 1.6,21.17 13.8,26.21 -10.53,15.71 -17.94,-5.63 -19.59,-16.78 -1.73,-11.65 -1.68,-19.95 -5.88,-28.68 -15.36,0 -30.99,27.38 -37.59,38.78l-17.66 36.9c-2.93,7.67 -1.63,7.23 -8.4,7.97 -2.54,-5.31 -4.34,-21.93 -3.64,-30.93 1.68,-21.74 4.49,-79.34 10.92,-92.73 -11.89,0 -17.66,1.82 -30.92,1.82l-6.88 53.13c-0.83,5.41 0.08,10.6 -0.52,15.84 -4.32,37.6 -7.54,89.01 -1.89,124 1.32,8.21 0.65,17.49 9.29,19.8l0 5.45c-8.58,-0.19 -10.09,-0.9 -12.85,-7.15 -11.94,-27.03 -8.21,-125.57 -3.91,-153.27 0.84,-5.41 -0.07,-10.6 0.53,-15.84 0.6,-5.22 1.27,-5.31 1.69,-12.86 0.4,-7.27 2.12,-20.81 3.63,-27.29l-12.73 0c-3.14,13.47 -13.18,28.42 -18.4,41.61 -14.66,37.01 -61.62,88.88 -61.62,20.23l-7.73 10.44c-38.01,45 -60.28,0.21 -72.28,-17.72 -8.54,5.72 -10.37,14.01 -15.07,23.13 -2.83,5.49 -0.47,4.29 -6.76,5.97 -1.67,-3.5 -3.63,-17.98 -3.7,-23.57l-1.75 -25.53c-5.6,1.49 -4.32,0.88 -6.79,5.94 -1.8,3.69 -1.95,5.45 -3.55,9.19 -2.71,6.34 -5.29,11.98 -7.59,17.86 -4.46,11.4 -9.37,30.66 -23.9,30.66 -7.07,-13.36 -5.45,-28.4 -3.64,-43.65l-76.38 38.19c15.29,3.56 34.56,26.14 34.56,45.47 0,15.55 -3.08,27.92 -9.1,40.01l-35.89 44.12c-30,27.16 -88.35,52.71 -136.67,54.08l-7.68 0c-13.2,-0.36 -25.45,-2.71 -35.9,-7.54 -58.56,-27.07 21.49,-91.94 46.7,-110.98 16.79,-12.68 35.76,-20.93 53.42,-32.06 15.55,-9.8 52.63,-28.92 70.56,-33.1l-10.18 -4.37c-24.39,-9.39 -49.17,-15.05 -74.2,-22.18l-82.7 -26.42c-13.31,-4.9 -24.94,-10.37 -37.81,-16.74 -7.53,-3.73 -10.87,-6.65 -17.04,-10.25 -6.57,-3.83 -9.99,-6.78 -16.01,-11.27 -23.7,-17.67 -40.3,-42.44 -40.3,-74.26 0,-10.05 2.76,-22.19 5.16,-29.39 1.68,-5.05 3.01,-6.41 5.02,-11.35 7.85,-19.32 19.91,-34.58 32.37,-51.28 5.43,-7.28 10.42,-10.15 16.35,-18.2 4.03,-5.47 4.17,-4.11 8.72,-7.65l44.63 -37.2c23.48,-17.98 37.91,-23.75 62.27,-37.76l22.13 -10.6c28.06,-10.95 65.58,-22.51 102.01,-25.71zm312.38 294.61c2.16,-4.51 12.73,-30.16 12.73,-34.55l1.82 0c0,6.12 -2.51,15.48 -3.2,20.44 -1.54,11.06 1,13.83 -11.35,14.11z"/>
  <path fill="#FF90AA" stroke="#000" stroke-linecap="round" stroke-miterlimit="10" stroke-width="2" paint-order="stroke" d="M121.09 103.04l0 -1.94 2.26 1.62 -2.26 0.32zm0 0l-9.7 23.31c-35.15,77.66 -74.96,186.83 -94,269.05 -3.74,16.13 -16.08,82.45 -16.75,99.74 -1.65,43 -4.7,117.3 56.8,121.98 21.17,1.62 52.27,-18.16 67.05,-33.08 32.74,-33.05 59.08,-75.91 80.08,-117.95l21.35 -46.59c2.19,3.44 10.01,39.59 45.3,25.88 17.01,-6.61 22.46,-17.66 30.35,-27.9 3.28,-4.26 5.74,-4.64 10.29,-9.12 13.01,-12.79 30.23,-27.77 52.06,-25.94 25.26,2.11 -11.65,22.8 -16.85,26.2 -28.11,18.37 8.93,18.86 12.6,38.42 2.04,10.84 -8.7,30.28 -12.96,36.94 -7.18,11.26 -13.46,18.48 -23.2,27.28 -11.35,10.24 -20.14,15.02 -35.46,15.02 -6.42,-12.13 -1.48,-16.63 6.95,-28 3.41,-4.59 3.17,-4.49 7.1,-8.43 5.33,-5.34 9.56,-8.65 15.85,-13.28 6.31,-4.65 11.27,-7.76 20.58,-8.54 -1.87,-7 -2.34,-6.12 -7.97,-4.4 -5.05,1.55 -7.86,3.34 -11.87,5.92 -12.46,8.03 -27.03,20.59 -34.5,33.45 -5.99,10.32 -7.11,13.39 -3.91,27.16 18.03,4.2 32.26,-0.13 44.31,-8.11 24.85,-16.47 62.52,-59.29 38.48,-90.21 -3.47,-4.45 -12.08,-9.2 -16.78,-12.34 5.18,-7.73 55.06,-31.52 26.87,-42.4 -12.63,-4.88 -28.34,0.39 -41.22,4.75 -8.51,2.88 -15.25,6.37 -21.79,11.21 -2.51,1.85 -7.28,6.26 -8.97,8.51 -4.11,5.49 -2.28,20.09 -18.91,31.56 -33.22,22.93 -46.64,4.63 -46.64,-36.93l-5.82 0c-1.3,5.55 -2.12,7.84 -4.54,12.94l-35.57 73.15 -35.22 56.03c-15.91,24.03 -47.97,59.33 -77.28,68.32 -21.15,6.49 -39.08,2.19 -49.97,-17.57 -10,-18.13 -10.98,-35.6 -10.98,-62.79 0,-54.05 15.36,-136.88 32.27,-187.12 35.16,-104.5 50.87,-139.84 97.15,-232.89 6.12,-12.3 19.88,-36.6 28.31,-45.47 5.52,-5.8 12.31,-14.05 13.12,-23.77l-5.83 -5.82c-21.87,1.82 -29.57,21.11 -42.35,37.25l-14.4 16.66c-18.39,19.07 -34.28,40.97 -50.56,62.05 -4.92,6.37 -11.67,12.64 -7.23,21.88 12.63,-1.05 -2.73,1.82 26.64,-33.54l27.72 -32.47z"/>
  <path fill="#FF90AA" stroke="#000" stroke-linecap="round" stroke-miterlimit="10" stroke-width="2" paint-order="stroke" d="M396.77 464.15c-5.95,-7.12 2.89,-37.18 5.06,-43.48 10.67,-30.96 24.06,-36.92 24.06,-18.65 0,4.77 -9.51,28.57 -11.37,33.28 -2.23,5.64 -4,11.18 -6.69,16.61 -5.25,10.6 -5.89,10.86 -11.06,12.24zm36.89 -77.66c-10.35,-2.76 -20.29,-18.69 -35.75,6.96 -15.02,24.92 -18.83,76.52 -1.14,76.52 13.04,0 33.01,-60.18 33.01,-64.06l1.94 0c0,16.2 5.78,30.78 19.64,36.66 13.49,5.72 22.15,4.56 35.38,-1.06 4.1,-1.74 5.41,-2.66 8.55,-5.04 12.57,-9.52 25.35,-22.93 25.73,-40.27 -8.28,5.54 -11.13,19.54 -19.84,28.7 -14.76,15.51 -57.82,34.14 -57.82,-18.99 0,-11.09 4.96,-14.8 5.83,-25.24l-7.77 -5.83c-6.33,3.35 -7,2.48 -7.76,11.65z"/>
  <path fill="#FF90AA" stroke="#000" stroke-linecap="round" stroke-miterlimit="10" stroke-width="2" paint-order="stroke" d="M949.91 263.99l0 3.89c5.16,2.47 2.08,1.77 9.71,1.94l2.18 -7.69c-6.86,-3.7 -11.89,-1.8 -11.89,1.86z"/>
  <path fill="#FF90AA" stroke="#000" stroke-linecap="round" stroke-miterlimit="10" stroke-width="2" paint-order="stroke" d="M234.49 380.45c13.8,-1.15 5.2,3.19 11.89,-5.94 -6.69,-9.13 1.91,-4.8 -11.89,-5.95l0 11.89z"/>
 </g>
</svg>
