<?xml version="1.0" encoding="UTF-8"?>
<!DOCTYPE svg PUBLIC "-//W3C//DTD SVG 1.1//EN" "http://www.w3.org/Graphics/SVG/1.1/DTD/svg11.dtd">
<!-- Creator: CorelDRAW 2018 (64-Bit) -->
<svg xmlns="http://www.w3.org/2000/svg" xml:space="preserve" width="401px" height="46px" version="1.1" style="shape-rendering:geometricPrecision; text-rendering:geometricPrecision; image-rendering:optimizeQuality; fill-rule:evenodd; clip-rule:evenodd"
viewBox="0 0 401 46.1"
 xmlns:xlink="http://www.w3.org/1999/xlink">
 <defs>
  <style type="text/css">
   <![CDATA[
    .fil0 {fill:white;fill-rule:nonzero}
   ]]>
  </style>
 </defs>
 <g id="Layer_x0020_1">
  <metadata id="CorelCorpID_0Corel-Layer"/>
  <polygon class="fil0" points="12.57,45.2 20.61,45.2 20.61,13.16 33.23,13.16 33.23,5.9 0,5.9 0,13.16 12.57,13.16 "/>
  <path id="1" class="fil0" d="M65.1 26.92c0,-7.15 -4.29,-11.85 -10.96,-11.85 -3.28,0 -6.14,1.19 -8.1,3.15l0 -17.68 -8.04 0 0 44.66 8.04 0 0 -17.15c0,-3.39 2.32,-5.72 5.6,-5.72 3.27,0 5.48,2.33 5.48,5.72l0 17.15 7.98 0 0 -18.28z"/>
  <path id="2" class="fil0" d="M99.94 33.17c0.35,-1.49 0.53,-2.97 0.53,-4.4 0,-7.69 -5.71,-13.7 -13.87,-13.7 -8.52,-0.18 -15.61,6.91 -15.43,15.42 -0.18,8.52 7.03,15.61 16.14,15.43 4.35,0 8.28,-1.49 11.79,-4.41l-3.33 -5.48c-2.56,1.97 -5.3,2.98 -8.22,2.98 -4.29,0 -7.33,-2.08 -8.28,-5.84l20.67 0zm-20.67 -5.65c0.89,-3.64 3.63,-5.96 7.03,-5.96 3.51,0 6.31,2.32 6.37,5.96l-13.4 0z"/>
  <path id="3" class="fil0" d="M119.77 45.2l8.04 0 0 -13.87 6.73 0c8.22,0 14.17,-5.24 14.17,-12.75 0,-7.56 -5.95,-12.68 -14.17,-12.68l-14.77 0 0 39.3zm8.04 -20.9l0 -11.32 6.73 0c3.63,0 5.96,2.27 5.96,5.6 0,3.4 -2.21,5.72 -5.96,5.72l-6.73 0z"/>
  <path id="4" class="fil0" d="M180.99 33.17c0.36,-1.49 0.54,-2.97 0.54,-4.4 0,-7.69 -5.72,-13.7 -13.88,-13.7 -8.51,-0.18 -15.6,6.91 -15.42,15.42 -0.18,8.52 7.03,15.61 16.14,15.43 4.35,0 8.28,-1.49 11.79,-4.41l-3.33 -5.48c-2.57,1.97 -5.31,2.98 -8.22,2.98 -4.29,0 -7.33,-2.08 -8.28,-5.84l20.66 0zm-20.66 -5.65c0.89,-3.64 3.63,-5.96 7.03,-5.96 3.51,0 6.31,2.32 6.37,5.96l-13.4 0z"/>
  <path id="5" class="fil0" d="M206.72 38.47c-2.08,0.18 -3.33,0.24 -3.81,0.24 -3.81,0 -5.48,-1.25 -5.48,-4.58l0 -11.62 8.34 0 0 -6.79 -8.34 0 0 -7.44 -8.04 0 0 7.44 -4.64 0 0 6.79 4.64 0 0 12.33c0,7.39 4.35,11.08 11.79,11.08 1.79,0 3.64,-0.24 5.54,-0.72l0 -6.73z"/>
  <path id="6" class="fil0" d="M222.86 37.22c3.04,5.3 8.52,8.7 15.19,8.7 7.86,0 13.76,-4.59 13.76,-11.79 0,-5.3 -3.1,-8.58 -9.71,-11.5l-4.47 -1.96c-3.33,-1.49 -4.58,-2.45 -4.58,-4.53 0,-2.44 2.08,-3.81 4.88,-3.81 2.98,0 5.48,1.49 7.51,4.52l5.47 -4.22c-2.44,-4.53 -6.96,-7.45 -12.98,-7.45 -7.44,0 -13.04,4.41 -13.04,11.14 0,5.24 3.51,8.63 9.53,11.31l4.23 1.91c3.75,1.73 5,2.56 5,4.88 0,2.68 -2.09,4.35 -5.6,4.35 -4.29,0 -7.09,-2.2 -9.65,-5.72l-5.54 4.17z"/>
  <path id="7" class="fil0" d="M277 38.47c-2.08,0.18 -3.33,0.24 -3.81,0.24 -3.81,0 -5.48,-1.25 -5.48,-4.58l0 -11.62 8.34 0 0 -6.79 -8.34 0 0 -7.44 -8.04 0 0 7.44 -4.65 0 0 6.79 4.65 0 0 12.33c0,7.39 4.35,11.08 11.79,11.08 1.79,0 3.63,-0.24 5.54,-0.72l0 -6.73z"/>
  <path id="8" class="fil0" d="M282.54 32.22c0,8.22 5.78,13.7 13.64,13.7 7.68,0 13.52,-5.48 13.52,-13.7l0 -16.5 -8.04 0 0 17.16c0,3.39 -2.39,5.65 -5.48,5.65 -3.28,0 -5.6,-2.26 -5.6,-5.65l0 -17.16 -8.04 0 0 16.5z"/>
  <path id="9" class="fil0" d="M338.82 0.54l0 18.04c-2.14,-2.32 -5.06,-3.51 -8.81,-3.51 -8.22,0 -14.3,6.55 -14.3,15.42 0,8.88 6.08,15.43 14.3,15.43 4.05,0 7.5,-1.55 9.47,-4.35l0 3.63 7.38 0 0 -44.66 -8.04 0zm0.12 29.95c0,5.3 -3.39,8.1 -7.44,8.1 -4.35,0 -7.63,-3.21 -7.63,-8.16 0,-4.82 3.34,-8.1 7.63,-8.1 4.05,0 7.44,2.92 7.44,8.16z"/>
  <path id="10" class="fil0" d="M354.84 45.2l8.04 0 0 -29.48 -8.04 0 0 29.48zm-1.13 -40.2c0,2.8 2.26,4.95 5.12,4.95 2.86,0 5.18,-2.15 5.18,-4.95 0,-2.86 -2.32,-5 -5.18,-5 -2.86,0 -5.12,2.14 -5.12,5z"/>
  <path id="11" class="fil0" d="M369.2 30.43c-0.18,8.4 7.08,15.61 15.72,15.43 8.63,0.18 16.08,-7.03 15.9,-15.43 0.18,-8.39 -7.21,-15.48 -15.84,-15.36 -8.64,-0.18 -15.96,6.97 -15.78,15.36zm23.4 0.06c0,4.59 -3.27,7.98 -7.62,7.98 -4.47,0 -7.63,-3.39 -7.63,-7.98 0,-4.7 3.16,-8.1 7.63,-8.1 4.35,0 7.62,3.52 7.62,8.1z"/>
 </g>
</svg>
